<?xml version="1.0" encoding="UTF-8" standalone="no"?><svg xmlns="http://www.w3.org/2000/svg" xmlns:xlink="http://www.w3.org/1999/xlink" contentStyleType="text/css" height="439px" preserveAspectRatio="none" style="width:600px;height:439px;background:#FFFFFF;" version="1.1" viewBox="0 0 600 439" width="600px" zoomAndPan="magnify"><defs/><g><!--MD5=[d218c48b946d362ff1ecd879cabebcad]
class Room--><g id="elem_Room"><rect codeLine="1" fill="#F1F1F1" height="255.8594" id="Room" rx="2.5" ry="2.5" style="stroke:#181818;stroke-width:0.5;" width="281" x="7" y="7"/><ellipse cx="122.25" cy="23" fill="#ADD1B2" rx="11" ry="11" style="stroke:#181818;stroke-width:1.0;"/><path d="M124.5938,18.6719 C123.6563,18.2344 123.0625,18.0938 122.1875,18.0938 C119.5625,18.0938 117.5625,20.1719 117.5625,22.8906 L117.5625,24.0156 C117.5625,26.5938 119.6719,28.4844 122.5625,28.4844 C123.7813,28.4844 124.9375,28.1875 125.6875,27.6406 C126.2656,27.2344 126.5938,26.7813 126.5938,26.3906 C126.5938,25.9375 126.2031,25.5469 125.7344,25.5469 C125.5156,25.5469 125.3125,25.625 125.125,25.8125 C124.6719,26.2969 124.6719,26.2969 124.4844,26.3906 C124.0625,26.6563 123.375,26.7813 122.6094,26.7813 C120.5625,26.7813 119.2656,25.6875 119.2656,23.9844 L119.2656,22.8906 C119.2656,21.1094 120.5156,19.7969 122.25,19.7969 C122.8281,19.7969 123.4375,19.9531 123.9063,20.2031 C124.3906,20.4844 124.5625,20.7031 124.6563,21.1094 C124.7188,21.5156 124.75,21.6406 124.8906,21.7656 C125.0313,21.9063 125.2656,22.0156 125.4844,22.0156 C125.75,22.0156 126.0156,21.875 126.1875,21.6563 C126.2969,21.5 126.3281,21.3125 126.3281,20.8906 L126.3281,19.4688 C126.3281,19.0313 126.3125,18.9063 126.2188,18.75 C126.0625,18.4844 125.7813,18.3438 125.4844,18.3438 C125.1875,18.3438 124.9844,18.4375 124.7656,18.75 L124.5938,18.6719 Z " fill="#000000"/><text fill="#000000" font-family="sans-serif" font-size="14" lengthAdjust="spacing" textLength="42" x="142.75" y="27.8467">Room</text><line style="stroke:#181818;stroke-width:0.5;" x1="8" x2="287" y1="39" y2="39"/><rect fill="none" height="6" style="stroke:#C82930;stroke-width:1.0;" width="6" x="15" y="47"/><text fill="#000000" font-family="sans-serif" font-size="14" lengthAdjust="spacing" textLength="215" x="27" y="55.9951">noOfPlayers : int -&gt; 8 players?</text><rect fill="none" height="6" style="stroke:#C82930;stroke-width:1.0;" width="6" x="15" y="63.2969"/><text fill="#000000" font-family="sans-serif" font-size="14" lengthAdjust="spacing" textLength="224" x="27" y="72.292">ImageHash : randomly selected</text><rect fill="none" height="6" style="stroke:#C82930;stroke-width:1.0;" width="6" x="15" y="79.5938"/><text fill="#000000" font-family="sans-serif" font-size="14" lengthAdjust="spacing" textLength="143" x="27" y="88.5889">answer: the answer.</text><text fill="#000000" font-family="sans-serif" font-size="14" lengthAdjust="spacing" textLength="243" x="27" y="104.8857">if chat input matches with answer</text><text fill="#000000" font-family="sans-serif" font-size="14" lengthAdjust="spacing" textLength="129" x="27" y="121.1826">no send-ey. okay?</text><rect fill="none" height="6" style="stroke:#C82930;stroke-width:1.0;" width="6" x="15" y="128.4844"/><text fill="#000000" font-family="sans-serif" font-size="14" lengthAdjust="spacing" textLength="76" x="27" y="137.4795">UsersArray</text><text fill="#000000" font-family="sans-serif" font-size="14" lengthAdjust="spacing" textLength="4" x="27" y="153.7764"> </text><ellipse cx="18" cy="184.375" fill="none" rx="3" ry="3" style="stroke:#038048;stroke-width:1.0;"/><text fill="#000000" font-family="sans-serif" font-size="14" lengthAdjust="spacing" textLength="42" x="27" y="190.3701">Timer</text><ellipse cx="18" cy="200.6719" fill="#84BE84" rx="3" ry="3" style="stroke:#038048;stroke-width:1.0;"/><text fill="#000000" font-family="sans-serif" font-size="14" lengthAdjust="spacing" textLength="201" x="27" y="206.667">VictoryMessage (end phase)</text><ellipse cx="18" cy="216.9688" fill="none" rx="3" ry="3" style="stroke:#038048;stroke-width:1.0;"/><text fill="#000000" font-family="sans-serif" font-size="14" lengthAdjust="spacing" textLength="85" x="27" y="222.9639">Track Score</text><ellipse cx="18" cy="233.2656" fill="none" rx="3" ry="3" style="stroke:#038048;stroke-width:1.0;"/><text fill="#000000" font-family="sans-serif" font-size="14" lengthAdjust="spacing" textLength="255" x="27" y="239.2607">getInputs and feed into GameMode</text><text fill="#000000" font-family="sans-serif" font-size="14" lengthAdjust="spacing" textLength="4" x="27" y="255.5576"> </text><line style="stroke:#181818;stroke-width:1.0;" x1="8" x2="115.5" y1="169.2266" y2="169.2266"/><text fill="#000000" font-family="sans-serif" font-size="14" lengthAdjust="spacing" textLength="64" x="115.5" y="173.5732">methods</text><line style="stroke:#181818;stroke-width:1.0;" x1="179.5" x2="287" y1="169.2266" y2="169.2266"/></g><!--MD5=[5eb2ac03d0c371fca296cb0d00e756e3]
class GameMode--><g id="elem_GameMode"><rect codeLine="16" fill="#F1F1F1" height="227.2656" id="GameMode" rx="2.5" ry="2.5" style="stroke:#181818;stroke-width:0.5;" width="270" x="323.5" y="21.5"/><ellipse cx="413.25" cy="37.5" fill="#A9DCDF" rx="11" ry="11" style="stroke:#181818;stroke-width:1.0;"/><path d="M415.3281,39.3125 L415.7188,40.2969 L415.3281,40.2969 C414.875,40.2969 414.7656,40.3125 414.6094,40.4219 C414.3594,40.5781 414.2031,40.8594 414.2031,41.1563 C414.2031,41.4219 414.3438,41.6719 414.5625,41.8281 C414.7031,41.9531 414.9063,42 415.3281,42 L417.6875,42 C418.0469,42 418.2656,41.9688 418.4063,41.875 C418.6563,41.7344 418.8125,41.4375 418.8125,41.1563 C418.8125,40.875 418.6719,40.625 418.4531,40.4688 C418.2813,40.3281 418.125,40.2969 417.6563,40.2969 L414.2656,32.0938 L410.5938,32.0938 C410.1406,32.0938 410.0156,32.1094 409.8594,32.2031 C409.6094,32.375 409.4531,32.6563 409.4531,32.9375 C409.4531,33.2188 409.5938,33.4688 409.8125,33.6406 C409.9844,33.75 410.1563,33.7813 410.5938,33.7813 L411.6719,33.7813 L409.0313,40.2969 C408.6094,40.2969 408.4531,40.3125 408.2969,40.4219 C408.0469,40.5781 407.8906,40.8594 407.8906,41.1563 C407.8906,41.7188 408.2656,42 409.0156,42 L411.2813,42 C411.6406,42 411.8594,41.9688 411.9844,41.875 C412.25,41.7344 412.3906,41.4375 412.3906,41.1563 C412.3906,40.875 412.2656,40.625 412.0469,40.4531 C411.875,40.3281 411.7344,40.2969 411.2813,40.2969 L410.8906,40.2969 L411.2813,39.3125 L415.3281,39.3125 Z M414.625,37.6094 L411.9531,37.6094 L413.2969,34.3438 L414.625,37.6094 Z " fill="#000000"/><text fill="#000000" font-family="sans-serif" font-size="14" font-style="italic" lengthAdjust="spacing" textLength="82" x="433.75" y="42.3467">GameMode</text><line style="stroke:#181818;stroke-width:0.5;" x1="324.5" x2="592.5" y1="53.5" y2="53.5"/><rect fill="none" height="6" style="stroke:#C82930;stroke-width:1.0;" width="6" x="331.5" y="81.7969"/><text fill="#000000" font-family="sans-serif" font-size="14" lengthAdjust="spacing" textLength="204" x="343.5" y="90.792">boolean GameEnded = False</text><rect fill="none" height="6" style="stroke:#C82930;stroke-width:1.0;" width="6" x="331.5" y="98.0938"/><text fill="#000000" font-family="sans-serif" font-size="14" lengthAdjust="spacing" textLength="51" x="343.5" y="107.0889">Winner</text><line style="stroke:#181818;stroke-width:1.0;" x1="324.5" x2="421" y1="69.6484" y2="69.6484"/><text fill="#000000" font-family="sans-serif" font-size="14" lengthAdjust="spacing" textLength="75" x="421" y="73.9951">Attributes</text><line style="stroke:#181818;stroke-width:1.0;" x1="496" x2="592.5" y1="69.6484" y2="69.6484"/><ellipse cx="334.5" cy="137.6875" fill="none" rx="3" ry="3" style="stroke:#038048;stroke-width:1.0;"/><text fill="#000000" font-family="sans-serif" font-size="14" lengthAdjust="spacing" textLength="126" x="343.5" y="143.6826">abstract PlayTurn</text><text fill="#000000" font-family="sans-serif" font-size="14" lengthAdjust="spacing" textLength="209" x="343.5" y="159.9795">(after each tick, check input)</text><rect fill="#F24D5C" height="6" style="stroke:#C82930;stroke-width:1.0;" width="6" x="331.5" y="167.2813"/><text fill="#000000" font-family="sans-serif" font-size="14" lengthAdjust="spacing" textLength="122" x="343.5" y="176.2764">checkInput(User)</text><ellipse cx="334.5" cy="186.5781" fill="none" rx="3" ry="3" style="stroke:#038048;stroke-width:1.0;"/><text fill="#000000" font-family="sans-serif" font-size="14" lengthAdjust="spacing" textLength="139" x="343.5" y="192.5732">ProvideNextPicture</text><ellipse cx="334.5" cy="202.875" fill="none" rx="3" ry="3" style="stroke:#038048;stroke-width:1.0;"/><text fill="#000000" font-family="sans-serif" font-size="14" lengthAdjust="spacing" textLength="69" x="343.5" y="208.8701">EndGame</text><text fill="#000000" font-family="sans-serif" font-size="14" lengthAdjust="spacing" textLength="158" x="343.5" y="225.167">(gets users game data</text><text fill="#000000" font-family="sans-serif" font-size="14" lengthAdjust="spacing" textLength="244" x="343.5" y="241.4639">and sends back winner sorted list)</text><line style="stroke:#181818;stroke-width:1.0;" x1="324.5" x2="427.5" y1="122.5391" y2="122.5391"/><text fill="#000000" font-family="sans-serif" font-size="14" lengthAdjust="spacing" textLength="62" x="427.5" y="126.8857">Methods</text><line style="stroke:#181818;stroke-width:1.0;" x1="489.5" x2="592.5" y1="122.5391" y2="122.5391"/></g><!--MD5=[3fd616f346a44cd59a91eb10b19e157c]
class User--><g id="elem_User"><rect codeLine="29" fill="#F1F1F1" height="109.1875" id="User" rx="2.5" ry="2.5" style="stroke:#181818;stroke-width:0.5;" width="255" x="20" y="323"/><ellipse cx="127.75" cy="339" fill="#ADD1B2" rx="11" ry="11" style="stroke:#181818;stroke-width:1.0;"/><path d="M130.0938,334.6719 C129.1563,334.2344 128.5625,334.0938 127.6875,334.0938 C125.0625,334.0938 123.0625,336.1719 123.0625,338.8906 L123.0625,340.0156 C123.0625,342.5938 125.1719,344.4844 128.0625,344.4844 C129.2813,344.4844 130.4375,344.1875 131.1875,343.6406 C131.7656,343.2344 132.0938,342.7813 132.0938,342.3906 C132.0938,341.9375 131.7031,341.5469 131.2344,341.5469 C131.0156,341.5469 130.8125,341.625 130.625,341.8125 C130.1719,342.2969 130.1719,342.2969 129.9844,342.3906 C129.5625,342.6563 128.875,342.7813 128.1094,342.7813 C126.0625,342.7813 124.7656,341.6875 124.7656,339.9844 L124.7656,338.8906 C124.7656,337.1094 126.0156,335.7969 127.75,335.7969 C128.3281,335.7969 128.9375,335.9531 129.4063,336.2031 C129.8906,336.4844 130.0625,336.7031 130.1563,337.1094 C130.2188,337.5156 130.25,337.6406 130.3906,337.7656 C130.5313,337.9063 130.7656,338.0156 130.9844,338.0156 C131.25,338.0156 131.5156,337.875 131.6875,337.6563 C131.7969,337.5 131.8281,337.3125 131.8281,336.8906 L131.8281,335.4688 C131.8281,335.0313 131.8125,334.9063 131.7188,334.75 C131.5625,334.4844 131.2813,334.3438 130.9844,334.3438 C130.6875,334.3438 130.4844,334.4375 130.2656,334.75 L130.0938,334.6719 Z " fill="#000000"/><text fill="#000000" font-family="sans-serif" font-size="14" lengthAdjust="spacing" textLength="31" x="148.25" y="343.8467">User</text><line style="stroke:#181818;stroke-width:0.5;" x1="21" x2="274" y1="355" y2="355"/><rect fill="none" height="6" style="stroke:#C82930;stroke-width:1.0;" width="6" x="28" y="383.2969"/><text fill="#000000" font-family="sans-serif" font-size="14" lengthAdjust="spacing" textLength="40" x="40" y="392.292">name</text><rect fill="none" height="6" style="stroke:#C82930;stroke-width:1.0;" width="6" x="28" y="399.5938"/><text fill="#000000" font-family="sans-serif" font-size="14" lengthAdjust="spacing" textLength="229" x="40" y="408.5889">how to connect IP or something</text><rect fill="none" height="6" style="stroke:#C82930;stroke-width:1.0;" width="6" x="28" y="415.8906"/><text fill="#000000" font-family="sans-serif" font-size="14" lengthAdjust="spacing" textLength="39" x="40" y="424.8857">score</text><line style="stroke:#181818;stroke-width:1.0;" x1="21" x2="110" y1="371.1484" y2="371.1484"/><text fill="#000000" font-family="sans-serif" font-size="14" lengthAdjust="spacing" textLength="75" x="110" y="375.4951">Attributes</text><line style="stroke:#181818;stroke-width:1.0;" x1="185" x2="274" y1="371.1484" y2="371.1484"/></g><!--MD5=[a19173cc751d3741d548ef17fdbfcc18]
@startuml
class Room{
    - noOfPlayers : int -> 8 players?
    - ImageHash : randomly selected
    - answer: the answer.
        if chat input matches with answer
        no send-ey. okay?
    - UsersArray

    - - methods - -
    + Timer
    + VictoryMessage (end phase)
    + Track Score
    + getInputs and feed into GameMode

}
abstract class GameMode {
    - - Attributes - -
    - boolean GameEnded = False
    - Winner
    - - Methods - -
    + abstract PlayTurn 
    (after each tick, check input)
    - checkInput(User)
    + ProvideNextPicture
    + EndGame 
    (gets users game data 
    and sends back winner sorted list)
}
class User {
    - - Attributes - -
    - name
    - how to connect IP or something
    - score
}
' note left of GameMode::PlayTurn
' Processing the input from user....
' endnote
' note left of GameMode::InputPhase
' Server takes Data Packet 
' Introduction of TickRate
' Stores it in Server queue
' endnote
@enduml

@startuml
class Room{
    - noOfPlayers : int -> 8 players?
    - ImageHash : randomly selected
    - answer: the answer.
        if chat input matches with answer
        no send-ey. okay?
    - UsersArray

    - - methods - -
    + Timer
    + VictoryMessage (end phase)
    + Track Score
    + getInputs and feed into GameMode

}
abstract class GameMode {
    - - Attributes - -
    - boolean GameEnded = False
    - Winner
    - - Methods - -
    + abstract PlayTurn 
    (after each tick, check input)
    - checkInput(User)
    + ProvideNextPicture
    + EndGame 
    (gets users game data 
    and sends back winner sorted list)
}
class User {
    - - Attributes - -
    - name
    - how to connect IP or something
    - score
}
@enduml

PlantUML version 1.2022.4beta2(Unknown compile time)
(GPL source distribution)
Java Runtime: Java(TM) SE Runtime Environment
JVM: Java HotSpot(TM) 64-Bit Server VM
Default Encoding: UTF-8
Language: en
Country: US
--></g></svg>