<?xml version="1.0" encoding="UTF-8" standalone="no"?><svg xmlns="http://www.w3.org/2000/svg" xmlns:xlink="http://www.w3.org/1999/xlink" contentStyleType="text/css" height="284px" preserveAspectRatio="none" style="width:810px;height:284px;background:#FFFFFF;" version="1.1" viewBox="0 0 810 284" width="810px" zoomAndPan="magnify"><defs/><g><!--MD5=[cf4d6237fcae255cd2e1656cf84a30e2]
class Order--><g id="elem_Order"><rect codeLine="1" fill="#F1F1F1" height="80.5938" id="Order" rx="2.5" ry="2.5" style="stroke:#181818;stroke-width:0.5;" width="249" x="92.5" y="7"/><ellipse cx="192.25" cy="23" fill="#A9DCDF" rx="11" ry="11" style="stroke:#181818;stroke-width:1.0;"/><path d="M194.3281,24.8125 L194.7188,25.7969 L194.3281,25.7969 C193.875,25.7969 193.7656,25.8125 193.6094,25.9219 C193.3594,26.0781 193.2031,26.3594 193.2031,26.6563 C193.2031,26.9219 193.3438,27.1719 193.5625,27.3281 C193.7031,27.4531 193.9063,27.5 194.3281,27.5 L196.6875,27.5 C197.0469,27.5 197.2656,27.4688 197.4063,27.375 C197.6563,27.2344 197.8125,26.9375 197.8125,26.6563 C197.8125,26.375 197.6719,26.125 197.4531,25.9688 C197.2813,25.8281 197.125,25.7969 196.6563,25.7969 L193.2656,17.5938 L189.5938,17.5938 C189.1406,17.5938 189.0156,17.6094 188.8594,17.7031 C188.6094,17.875 188.4531,18.1563 188.4531,18.4375 C188.4531,18.7188 188.5938,18.9688 188.8125,19.1406 C188.9844,19.25 189.1563,19.2813 189.5938,19.2813 L190.6719,19.2813 L188.0313,25.7969 C187.6094,25.7969 187.4531,25.8125 187.2969,25.9219 C187.0469,26.0781 186.8906,26.3594 186.8906,26.6563 C186.8906,27.2188 187.2656,27.5 188.0156,27.5 L190.2813,27.5 C190.6406,27.5 190.8594,27.4688 190.9844,27.375 C191.25,27.2344 191.3906,26.9375 191.3906,26.6563 C191.3906,26.375 191.2656,26.125 191.0469,25.9531 C190.875,25.8281 190.7344,25.7969 190.2813,25.7969 L189.8906,25.7969 L190.2813,24.8125 L194.3281,24.8125 Z M193.625,23.1094 L190.9531,23.1094 L192.2969,19.8438 L193.625,23.1094 Z " fill="#000000"/><text fill="#000000" font-family="sans-serif" font-size="14" font-style="italic" lengthAdjust="spacing" textLength="41" x="212.75" y="27.8467">Order</text><line style="stroke:#181818;stroke-width:0.5;" x1="93.5" x2="340.5" y1="39" y2="39"/><line style="stroke:#181818;stroke-width:0.5;" x1="93.5" x2="340.5" y1="47" y2="47"/><ellipse cx="103.5" cy="58" fill="#84BE84" rx="3" ry="3" style="stroke:#038048;stroke-width:1.0;"/><text fill="#000000" font-family="sans-serif" font-size="14" lengthAdjust="spacing" textLength="219" x="112.5" y="63.9951">static send(LoadScene, Player)</text><ellipse cx="103.5" cy="74.2969" fill="#84BE84" rx="3" ry="3" style="stroke:#038048;stroke-width:1.0;"/><text fill="#000000" font-family="sans-serif" font-size="14" lengthAdjust="spacing" textLength="223" x="112.5" y="80.292">static send(GameState, Player)</text></g><!--MD5=[d4d6df13bc41ce2b2b24d2334a2e0e0d]
class OrderReply--><g id="elem_OrderReply"><rect codeLine="5" fill="#F1F1F1" height="80.5938" id="OrderReply" rx="2.5" ry="2.5" style="stroke:#181818;stroke-width:0.5;" width="153" x="376.5" y="7"/><ellipse cx="409.05" cy="23" fill="#ADD1B2" rx="11" ry="11" style="stroke:#181818;stroke-width:1.0;"/><path d="M411.3938,18.6719 C410.4563,18.2344 409.8625,18.0938 408.9875,18.0938 C406.3625,18.0938 404.3625,20.1719 404.3625,22.8906 L404.3625,24.0156 C404.3625,26.5938 406.4719,28.4844 409.3625,28.4844 C410.5813,28.4844 411.7375,28.1875 412.4875,27.6406 C413.0656,27.2344 413.3938,26.7813 413.3938,26.3906 C413.3938,25.9375 413.0031,25.5469 412.5344,25.5469 C412.3156,25.5469 412.1125,25.625 411.925,25.8125 C411.4719,26.2969 411.4719,26.2969 411.2844,26.3906 C410.8625,26.6563 410.175,26.7813 409.4094,26.7813 C407.3625,26.7813 406.0656,25.6875 406.0656,23.9844 L406.0656,22.8906 C406.0656,21.1094 407.3156,19.7969 409.05,19.7969 C409.6281,19.7969 410.2375,19.9531 410.7063,20.2031 C411.1906,20.4844 411.3625,20.7031 411.4563,21.1094 C411.5188,21.5156 411.55,21.6406 411.6906,21.7656 C411.8313,21.9063 412.0656,22.0156 412.2844,22.0156 C412.55,22.0156 412.8156,21.875 412.9875,21.6563 C413.0969,21.5 413.1281,21.3125 413.1281,20.8906 L413.1281,19.4688 C413.1281,19.0313 413.1125,18.9063 413.0188,18.75 C412.8625,18.4844 412.5813,18.3438 412.2844,18.3438 C411.9875,18.3438 411.7844,18.4375 411.5656,18.75 L411.3938,18.6719 Z " fill="#000000"/><text fill="#000000" font-family="sans-serif" font-size="14" lengthAdjust="spacing" textLength="82" x="426.95" y="27.8467">OrderReply</text><line style="stroke:#181818;stroke-width:0.5;" x1="377.5" x2="528.5" y1="39" y2="39"/><rect fill="none" height="6" style="stroke:#C82930;stroke-width:1.0;" width="6" x="384.5" y="47"/><text fill="#000000" font-family="sans-serif" font-size="14" lengthAdjust="spacing" textLength="127" x="396.5" y="55.9951">replyingTo: Order</text><rect fill="none" height="6" style="stroke:#C82930;stroke-width:1.0;" width="6" x="384.5" y="63.2969"/><text fill="#000000" font-family="sans-serif" font-size="14" lengthAdjust="spacing" textLength="90" x="396.5" y="72.292">data: Object</text><line style="stroke:#181818;stroke-width:0.5;" x1="377.5" x2="528.5" y1="79.5938" y2="79.5938"/></g><!--MD5=[89427f9de3fe898716c1c610357f61ab]
class ParseOrderReply--><g id="elem_ParseOrderReply"><rect codeLine="9" fill="#F1F1F1" height="64.2969" id="ParseOrderReply" rx="2.5" ry="2.5" style="stroke:#181818;stroke-width:0.5;" width="239" x="564.5" y="15.5"/><ellipse cx="619.25" cy="31.5" fill="#ADD1B2" rx="11" ry="11" style="stroke:#181818;stroke-width:1.0;"/><path d="M621.5938,27.1719 C620.6563,26.7344 620.0625,26.5938 619.1875,26.5938 C616.5625,26.5938 614.5625,28.6719 614.5625,31.3906 L614.5625,32.5156 C614.5625,35.0938 616.6719,36.9844 619.5625,36.9844 C620.7813,36.9844 621.9375,36.6875 622.6875,36.1406 C623.2656,35.7344 623.5938,35.2813 623.5938,34.8906 C623.5938,34.4375 623.2031,34.0469 622.7344,34.0469 C622.5156,34.0469 622.3125,34.125 622.125,34.3125 C621.6719,34.7969 621.6719,34.7969 621.4844,34.8906 C621.0625,35.1563 620.375,35.2813 619.6094,35.2813 C617.5625,35.2813 616.2656,34.1875 616.2656,32.4844 L616.2656,31.3906 C616.2656,29.6094 617.5156,28.2969 619.25,28.2969 C619.8281,28.2969 620.4375,28.4531 620.9063,28.7031 C621.3906,28.9844 621.5625,29.2031 621.6563,29.6094 C621.7188,30.0156 621.75,30.1406 621.8906,30.2656 C622.0313,30.4063 622.2656,30.5156 622.4844,30.5156 C622.75,30.5156 623.0156,30.375 623.1875,30.1563 C623.2969,30 623.3281,29.8125 623.3281,29.3906 L623.3281,27.9688 C623.3281,27.5313 623.3125,27.4063 623.2188,27.25 C623.0625,26.9844 622.7813,26.8438 622.4844,26.8438 C622.1875,26.8438 621.9844,26.9375 621.7656,27.25 L621.5938,27.1719 Z " fill="#000000"/><text fill="#000000" font-family="sans-serif" font-size="14" lengthAdjust="spacing" textLength="121" x="639.75" y="36.3467">ParseOrderReply</text><line style="stroke:#181818;stroke-width:0.5;" x1="565.5" x2="802.5" y1="47.5" y2="47.5"/><line style="stroke:#181818;stroke-width:0.5;" x1="565.5" x2="802.5" y1="55.5" y2="55.5"/><ellipse cx="575.5" cy="66.5" fill="#84BE84" rx="3" ry="3" style="stroke:#038048;stroke-width:1.0;"/><text fill="#000000" font-family="sans-serif" font-size="14" lengthAdjust="spacing" textLength="213" x="584.5" y="72.4951">ParseOrderReply(OrderReply)</text></g><!--MD5=[f3fd2181b0c28e3ad6671cc6577ed764]
class LoadScene--><g id="elem_LoadScene"><rect codeLine="12" fill="#F1F1F1" height="129.4844" id="LoadScene" rx="2.5" ry="2.5" style="stroke:#181818;stroke-width:0.5;" width="216" x="7" y="148"/><ellipse cx="71.75" cy="164" fill="#ADD1B2" rx="11" ry="11" style="stroke:#181818;stroke-width:1.0;"/><path d="M74.0938,159.6719 C73.1563,159.2344 72.5625,159.0938 71.6875,159.0938 C69.0625,159.0938 67.0625,161.1719 67.0625,163.8906 L67.0625,165.0156 C67.0625,167.5938 69.1719,169.4844 72.0625,169.4844 C73.2813,169.4844 74.4375,169.1875 75.1875,168.6406 C75.7656,168.2344 76.0938,167.7813 76.0938,167.3906 C76.0938,166.9375 75.7031,166.5469 75.2344,166.5469 C75.0156,166.5469 74.8125,166.625 74.625,166.8125 C74.1719,167.2969 74.1719,167.2969 73.9844,167.3906 C73.5625,167.6563 72.875,167.7813 72.1094,167.7813 C70.0625,167.7813 68.7656,166.6875 68.7656,164.9844 L68.7656,163.8906 C68.7656,162.1094 70.0156,160.7969 71.75,160.7969 C72.3281,160.7969 72.9375,160.9531 73.4063,161.2031 C73.8906,161.4844 74.0625,161.7031 74.1563,162.1094 C74.2188,162.5156 74.25,162.6406 74.3906,162.7656 C74.5313,162.9063 74.7656,163.0156 74.9844,163.0156 C75.25,163.0156 75.5156,162.875 75.6875,162.6563 C75.7969,162.5 75.8281,162.3125 75.8281,161.8906 L75.8281,160.4688 C75.8281,160.0313 75.8125,159.9063 75.7188,159.75 C75.5625,159.4844 75.2813,159.3438 74.9844,159.3438 C74.6875,159.3438 74.4844,159.4375 74.2656,159.75 L74.0938,159.6719 Z " fill="#000000"/><text fill="#000000" font-family="sans-serif" font-size="14" lengthAdjust="spacing" textLength="78" x="92.25" y="168.8467">LoadScene</text><line style="stroke:#181818;stroke-width:0.5;" x1="8" x2="222" y1="180" y2="180"/><rect fill="none" height="6" style="stroke:#C82930;stroke-width:1.0;" width="6" x="15" y="188"/><text fill="#000000" font-family="sans-serif" font-size="14" lengthAdjust="spacing" textLength="190" x="27" y="196.9951">MATCHMAKING_SCENE = 1</text><rect fill="none" height="6" style="stroke:#C82930;stroke-width:1.0;" width="6" x="15" y="204.2969"/><text fill="#000000" font-family="sans-serif" font-size="14" lengthAdjust="spacing" textLength="93" x="27" y="213.292">LOAD_IMAGE</text><rect fill="none" height="6" style="stroke:#C82930;stroke-width:1.0;" width="6" x="15" y="220.5938"/><text fill="#000000" font-family="sans-serif" font-size="14" lengthAdjust="spacing" textLength="123" x="27" y="229.5889">GAME_SCENE = 2</text><rect fill="none" height="6" style="stroke:#C82930;stroke-width:1.0;" width="6" x="15" y="236.8906"/><text fill="#000000" font-family="sans-serif" font-size="14" lengthAdjust="spacing" textLength="139" x="27" y="245.8857">WINNER_SCENE = 3</text><rect fill="none" height="6" style="stroke:#C82930;stroke-width:1.0;" width="6" x="15" y="253.1875"/><text fill="#000000" font-family="sans-serif" font-size="14" lengthAdjust="spacing" textLength="128" x="27" y="262.1826">LOSER_SCENE = 4</text><line style="stroke:#181818;stroke-width:0.5;" x1="8" x2="222" y1="269.4844" y2="269.4844"/></g><!--MD5=[c719a77c542a09de3463e0c7b48c79ef]
class GameStates--><g id="elem_GameStates"><rect fill="#F1F1F1" height="48" id="GameStates" rx="2.5" ry="2.5" style="stroke:#181818;stroke-width:0.5;" width="121" x="258.5" y="188.5"/><ellipse cx="273.5" cy="204.5" fill="#ADD1B2" rx="11" ry="11" style="stroke:#181818;stroke-width:1.0;"/><path d="M275.8438,200.1719 C274.9063,199.7344 274.3125,199.5938 273.4375,199.5938 C270.8125,199.5938 268.8125,201.6719 268.8125,204.3906 L268.8125,205.5156 C268.8125,208.0938 270.9219,209.9844 273.8125,209.9844 C275.0313,209.9844 276.1875,209.6875 276.9375,209.1406 C277.5156,208.7344 277.8438,208.2813 277.8438,207.8906 C277.8438,207.4375 277.4531,207.0469 276.9844,207.0469 C276.7656,207.0469 276.5625,207.125 276.375,207.3125 C275.9219,207.7969 275.9219,207.7969 275.7344,207.8906 C275.3125,208.1563 274.625,208.2813 273.8594,208.2813 C271.8125,208.2813 270.5156,207.1875 270.5156,205.4844 L270.5156,204.3906 C270.5156,202.6094 271.7656,201.2969 273.5,201.2969 C274.0781,201.2969 274.6875,201.4531 275.1563,201.7031 C275.6406,201.9844 275.8125,202.2031 275.9063,202.6094 C275.9688,203.0156 276,203.1406 276.1406,203.2656 C276.2813,203.4063 276.5156,203.5156 276.7344,203.5156 C277,203.5156 277.2656,203.375 277.4375,203.1563 C277.5469,203 277.5781,202.8125 277.5781,202.3906 L277.5781,200.9688 C277.5781,200.5313 277.5625,200.4063 277.4688,200.25 C277.3125,199.9844 277.0313,199.8438 276.7344,199.8438 C276.4375,199.8438 276.2344,199.9375 276.0156,200.25 L275.8438,200.1719 Z " fill="#000000"/><text fill="#000000" font-family="sans-serif" font-size="14" lengthAdjust="spacing" textLength="89" x="287.5" y="209.3467">GameStates</text><line style="stroke:#181818;stroke-width:0.5;" x1="259.5" x2="378.5" y1="220.5" y2="220.5"/><line style="stroke:#181818;stroke-width:0.5;" x1="259.5" x2="378.5" y1="228.5" y2="228.5"/></g><!--MD5=[1b3042dd174f65ca3366bb1ec96a0576]
reverse link Order to LoadScene--><g id="link_Order_LoadScene"><path codeLine="21" d="M181.258,105.617 C172.704,119.286 163.52,133.964 154.795,147.906 " fill="none" id="Order-backto-LoadScene" style="stroke:#181818;stroke-width:1.0;"/><polygon fill="none" points="175.505,101.615,192.048,88.374,187.373,109.042,175.505,101.615" style="stroke:#181818;stroke-width:1.0;"/></g><!--MD5=[38288ce130feece4d8ea984acba42881]
reverse link Order to GameStates--><g id="link_Order_GameStates"><path codeLine="22" d="M252.581,105.36 C270.366,133.781 290.913,166.616 304.388,188.1488 " fill="none" id="Order-backto-GameStates" style="stroke:#181818;stroke-width:1.0;"/><polygon fill="none" points="246.627,109.042,241.952,88.374,258.495,101.615,246.627,109.042" style="stroke:#181818;stroke-width:1.0;"/></g><!--MD5=[c13aeb45fc2334ae1869001badc47f45]
@startuml
abstract class Order{
    + static send(LoadScene, Player)
    + static send(GameState, Player)
}
class OrderReply {
    - replyingTo: Order
    - data: Object
}
class ParseOrderReply{
    + ParseOrderReply(OrderReply)
}
class LoadScene{
    - MATCHMAKING_SCENE = 1
    - LOAD_IMAGE
    - GAME_SCENE = 2
    - WINNER_SCENE = 3
    - LOSER_SCENE = 4
    ' TODO: Decide this part in Room
}

Order <|- - LoadScene
Order <|- - GameStates
@enduml

@startuml
abstract class Order{
    + static send(LoadScene, Player)
    + static send(GameState, Player)
}
class OrderReply {
    - replyingTo: Order
    - data: Object
}
class ParseOrderReply{
    + ParseOrderReply(OrderReply)
}
class LoadScene{
    - MATCHMAKING_SCENE = 1
    - LOAD_IMAGE
    - GAME_SCENE = 2
    - WINNER_SCENE = 3
    - LOSER_SCENE = 4
}

Order <|- - LoadScene
Order <|- - GameStates
@enduml

PlantUML version 1.2022.4beta2(Unknown compile time)
(GPL source distribution)
Java Runtime: Java(TM) SE Runtime Environment
JVM: Java HotSpot(TM) 64-Bit Server VM
Default Encoding: UTF-8
Language: en
Country: US
--></g></svg>