<?xml version="1.0" encoding="UTF-8" standalone="no"?><svg xmlns="http://www.w3.org/2000/svg" xmlns:xlink="http://www.w3.org/1999/xlink" contentStyleType="text/css" height="365px" preserveAspectRatio="none" style="width:1442px;height:365px;background:#FFFFFF;" version="1.1" viewBox="0 0 1442 365" width="1442px" zoomAndPan="magnify"><defs/><g><!--MD5=[55057eaf137c0defb4243fa4a606c629]
class ServerPacket--><g id="elem_ServerPacket"><rect codeLine="1" fill="#F1F1F1" height="178.375" id="ServerPacket" rx="2.5" ry="2.5" style="stroke:#181818;stroke-width:0.5;" width="342" x="7" y="7"/><ellipse cx="125.25" cy="23" fill="#ADD1B2" rx="11" ry="11" style="stroke:#181818;stroke-width:1.0;"/><path d="M127.5938,18.6719 C126.6563,18.2344 126.0625,18.0938 125.1875,18.0938 C122.5625,18.0938 120.5625,20.1719 120.5625,22.8906 L120.5625,24.0156 C120.5625,26.5938 122.6719,28.4844 125.5625,28.4844 C126.7813,28.4844 127.9375,28.1875 128.6875,27.6406 C129.2656,27.2344 129.5938,26.7813 129.5938,26.3906 C129.5938,25.9375 129.2031,25.5469 128.7344,25.5469 C128.5156,25.5469 128.3125,25.625 128.125,25.8125 C127.6719,26.2969 127.6719,26.2969 127.4844,26.3906 C127.0625,26.6563 126.375,26.7813 125.6094,26.7813 C123.5625,26.7813 122.2656,25.6875 122.2656,23.9844 L122.2656,22.8906 C122.2656,21.1094 123.5156,19.7969 125.25,19.7969 C125.8281,19.7969 126.4375,19.9531 126.9063,20.2031 C127.3906,20.4844 127.5625,20.7031 127.6563,21.1094 C127.7188,21.5156 127.75,21.6406 127.8906,21.7656 C128.0313,21.9063 128.2656,22.0156 128.4844,22.0156 C128.75,22.0156 129.0156,21.875 129.1875,21.6563 C129.2969,21.5 129.3281,21.3125 129.3281,20.8906 L129.3281,19.4688 C129.3281,19.0313 129.3125,18.9063 129.2188,18.75 C129.0625,18.4844 128.7813,18.3438 128.4844,18.3438 C128.1875,18.3438 127.9844,18.4375 127.7656,18.75 L127.5938,18.6719 Z " fill="#000000"/><text fill="#000000" font-family="sans-serif" font-size="14" lengthAdjust="spacing" textLength="97" x="145.75" y="27.8467">ServerPacket</text><line style="stroke:#181818;stroke-width:0.5;" x1="8" x2="348" y1="39" y2="39"/><ellipse cx="18" cy="50" fill="none" rx="3" ry="3" style="stroke:#038048;stroke-width:1.0;"/><text fill="#000000" font-family="sans-serif" font-size="14" lengthAdjust="spacing" textLength="125" x="27" y="55.9951">byte packetType</text><text fill="#000000" font-family="sans-serif" font-size="14" lengthAdjust="spacing" textLength="96" x="27" y="72.292">[PacketType]</text><ellipse cx="18" cy="82.5938" fill="none" rx="3" ry="3" style="stroke:#038048;stroke-width:1.0;"/><text fill="#000000" font-family="sans-serif" font-size="14" lengthAdjust="spacing" textLength="149" x="27" y="88.5889">Order&lt;?&gt; orderType</text><text fill="#000000" font-family="sans-serif" font-size="14" lengthAdjust="spacing" textLength="246" x="27" y="104.8857">[Initialise, GameState, LoadScene]</text><line style="stroke:#181818;stroke-width:0.5;" x1="8" x2="348" y1="112.1875" y2="112.1875"/><ellipse cx="18" cy="123.1875" fill="#84BE84" rx="3" ry="3" style="stroke:#038048;stroke-width:1.0;"/><text fill="#000000" font-family="sans-serif" font-size="14" lengthAdjust="spacing" textLength="316" x="27" y="129.1826">Packet(packetType, orderType, orderValue)</text><ellipse cx="18" cy="139.4844" fill="#84BE84" rx="3" ry="3" style="stroke:#038048;stroke-width:1.0;"/><text fill="#000000" font-family="sans-serif" font-size="14" lengthAdjust="spacing" textLength="121" x="27" y="145.4795">getPacketType()</text><ellipse cx="18" cy="155.7813" fill="#84BE84" rx="3" ry="3" style="stroke:#038048;stroke-width:1.0;"/><text fill="#000000" font-family="sans-serif" font-size="14" lengthAdjust="spacing" textLength="112" x="27" y="161.7764">getOrderType()</text><ellipse cx="18" cy="172.0781" fill="#84BE84" rx="3" ry="3" style="stroke:#038048;stroke-width:1.0;"/><text fill="#000000" font-family="sans-serif" font-size="14" lengthAdjust="spacing" textLength="101" x="27" y="178.0732">getOrderObj()</text></g><!--MD5=[2c444d4f3c0d565efd475698377c7e89]
class ClientPacket--><g id="elem_ClientPacket"><rect codeLine="11" fill="#F1F1F1" height="162.0781" id="ClientPacket" rx="2.5" ry="2.5" style="stroke:#181818;stroke-width:0.5;" width="346" x="384" y="15"/><ellipse cx="506.25" cy="31" fill="#ADD1B2" rx="11" ry="11" style="stroke:#181818;stroke-width:1.0;"/><path d="M508.5938,26.6719 C507.6563,26.2344 507.0625,26.0938 506.1875,26.0938 C503.5625,26.0938 501.5625,28.1719 501.5625,30.8906 L501.5625,32.0156 C501.5625,34.5938 503.6719,36.4844 506.5625,36.4844 C507.7813,36.4844 508.9375,36.1875 509.6875,35.6406 C510.2656,35.2344 510.5938,34.7813 510.5938,34.3906 C510.5938,33.9375 510.2031,33.5469 509.7344,33.5469 C509.5156,33.5469 509.3125,33.625 509.125,33.8125 C508.6719,34.2969 508.6719,34.2969 508.4844,34.3906 C508.0625,34.6563 507.375,34.7813 506.6094,34.7813 C504.5625,34.7813 503.2656,33.6875 503.2656,31.9844 L503.2656,30.8906 C503.2656,29.1094 504.5156,27.7969 506.25,27.7969 C506.8281,27.7969 507.4375,27.9531 507.9063,28.2031 C508.3906,28.4844 508.5625,28.7031 508.6563,29.1094 C508.7188,29.5156 508.75,29.6406 508.8906,29.7656 C509.0313,29.9063 509.2656,30.0156 509.4844,30.0156 C509.75,30.0156 510.0156,29.875 510.1875,29.6563 C510.2969,29.5 510.3281,29.3125 510.3281,28.8906 L510.3281,27.4688 C510.3281,27.0313 510.3125,26.9063 510.2188,26.75 C510.0625,26.4844 509.7813,26.3438 509.4844,26.3438 C509.1875,26.3438 508.9844,26.4375 508.7656,26.75 L508.5938,26.6719 Z " fill="#000000"/><text fill="#000000" font-family="sans-serif" font-size="14" lengthAdjust="spacing" textLength="93" x="526.75" y="35.8467">ClientPacket</text><line style="stroke:#181818;stroke-width:0.5;" x1="385" x2="729" y1="47" y2="47"/><ellipse cx="395" cy="58" fill="none" rx="3" ry="3" style="stroke:#038048;stroke-width:1.0;"/><text fill="#000000" font-family="sans-serif" font-size="14" lengthAdjust="spacing" textLength="125" x="404" y="63.9951">byte packetType</text><text fill="#000000" font-family="sans-serif" font-size="14" lengthAdjust="spacing" textLength="313" x="404" y="80.292">[replying to order, or sending a game input]</text><ellipse cx="395" cy="90.5938" fill="none" rx="3" ry="3" style="stroke:#038048;stroke-width:1.0;"/><text fill="#000000" font-family="sans-serif" font-size="14" lengthAdjust="spacing" textLength="122" x="404" y="96.5889">Order replyingTo</text><ellipse cx="395" cy="106.8906" fill="none" rx="3" ry="3" style="stroke:#038048;stroke-width:1.0;"/><text fill="#000000" font-family="sans-serif" font-size="14" lengthAdjust="spacing" textLength="111" x="404" y="112.8857">Reply&lt;?&gt; reply</text><line style="stroke:#181818;stroke-width:0.5;" x1="385" x2="729" y1="120.1875" y2="120.1875"/><ellipse cx="395" cy="131.1875" fill="#84BE84" rx="3" ry="3" style="stroke:#038048;stroke-width:1.0;"/><text fill="#000000" font-family="sans-serif" font-size="14" lengthAdjust="spacing" textLength="320" x="404" y="137.1826">ClientPacket(packetType, replyingTo, reply)</text><ellipse cx="395" cy="147.4844" fill="#84BE84" rx="3" ry="3" style="stroke:#038048;stroke-width:1.0;"/><text fill="#000000" font-family="sans-serif" font-size="14" lengthAdjust="spacing" textLength="235" x="404" y="153.4795">ClientPacket(packetType, value)</text><ellipse cx="395" cy="163.7813" fill="#84BE84" rx="3" ry="3" style="stroke:#038048;stroke-width:1.0;"/><text fill="#000000" font-family="sans-serif" font-size="14" lengthAdjust="spacing" textLength="121" x="404" y="169.7764">getPacketType()</text></g><!--MD5=[979e0f49fe01282a98e1c005054f5cf7]
class PacketType--><g id="elem_PacketType"><rect codeLine="22" fill="#F1F1F1" height="162.0781" id="PacketType" rx="2.5" ry="2.5" style="stroke:#181818;stroke-width:0.5;" width="156" x="765" y="15"/><ellipse cx="797.1" cy="31" fill="#ADD1B2" rx="11" ry="11" style="stroke:#181818;stroke-width:1.0;"/><path d="M799.4438,26.6719 C798.5063,26.2344 797.9125,26.0938 797.0375,26.0938 C794.4125,26.0938 792.4125,28.1719 792.4125,30.8906 L792.4125,32.0156 C792.4125,34.5938 794.5219,36.4844 797.4125,36.4844 C798.6313,36.4844 799.7875,36.1875 800.5375,35.6406 C801.1156,35.2344 801.4438,34.7813 801.4438,34.3906 C801.4438,33.9375 801.0531,33.5469 800.5844,33.5469 C800.3656,33.5469 800.1625,33.625 799.975,33.8125 C799.5219,34.2969 799.5219,34.2969 799.3344,34.3906 C798.9125,34.6563 798.225,34.7813 797.4594,34.7813 C795.4125,34.7813 794.1156,33.6875 794.1156,31.9844 L794.1156,30.8906 C794.1156,29.1094 795.3656,27.7969 797.1,27.7969 C797.6781,27.7969 798.2875,27.9531 798.7563,28.2031 C799.2406,28.4844 799.4125,28.7031 799.5063,29.1094 C799.5688,29.5156 799.6,29.6406 799.7406,29.7656 C799.8813,29.9063 800.1156,30.0156 800.3344,30.0156 C800.6,30.0156 800.8656,29.875 801.0375,29.6563 C801.1469,29.5 801.1781,29.3125 801.1781,28.8906 L801.1781,27.4688 C801.1781,27.0313 801.1625,26.9063 801.0688,26.75 C800.9125,26.4844 800.6313,26.3438 800.3344,26.3438 C800.0375,26.3438 799.8344,26.4375 799.6156,26.75 L799.4438,26.6719 Z " fill="#000000"/><text fill="#000000" font-family="sans-serif" font-size="14" lengthAdjust="spacing" textLength="86" x="814.9" y="35.8467">PacketType</text><line style="stroke:#181818;stroke-width:0.5;" x1="766" x2="920" y1="47" y2="47"/><rect fill="none" height="6" style="stroke:#C82930;stroke-width:1.0;" width="6" x="773" y="55"/><text fill="#000000" font-family="sans-serif" font-size="14" lengthAdjust="spacing" textLength="99" x="785" y="63.9951">INITIALISE = 0</text><rect fill="none" height="6" style="stroke:#C82930;stroke-width:1.0;" width="6" x="773" y="71.2969"/><text fill="#000000" font-family="sans-serif" font-size="14" lengthAdjust="spacing" textLength="79" x="785" y="80.292">ORDER = 1</text><rect fill="none" height="6" style="stroke:#C82930;stroke-width:1.0;" width="6" x="773" y="87.5938"/><text fill="#000000" font-family="sans-serif" font-size="14" lengthAdjust="spacing" textLength="130" x="785" y="96.5889">ORDER_REPLY = 2</text><rect fill="none" height="6" style="stroke:#C82930;stroke-width:1.0;" width="6" x="773" y="103.8906"/><text fill="#000000" font-family="sans-serif" font-size="14" lengthAdjust="spacing" textLength="106" x="785" y="112.8857">LoadScene = 3</text><rect fill="none" height="6" style="stroke:#C82930;stroke-width:1.0;" width="6" x="773" y="120.1875"/><text fill="#000000" font-family="sans-serif" font-size="14" lengthAdjust="spacing" textLength="120" x="785" y="129.1826">LOAD_IMAGE = 4</text><rect fill="none" height="6" style="stroke:#C82930;stroke-width:1.0;" width="6" x="773" y="136.4844"/><text fill="#000000" font-family="sans-serif" font-size="14" lengthAdjust="spacing" textLength="108" x="785" y="145.4795">GameInput = 5</text><rect fill="none" height="6" style="stroke:#C82930;stroke-width:1.0;" width="6" x="773" y="152.7813"/><text fill="#000000" font-family="sans-serif" font-size="14" lengthAdjust="spacing" textLength="110" x="785" y="161.7764">GameState = 6</text><line style="stroke:#181818;stroke-width:0.5;" x1="766" x2="920" y1="169.0781" y2="169.0781"/></g><!--MD5=[f3fd2181b0c28e3ad6671cc6577ed764]
class LoadScene--><g id="elem_LoadScene"><rect codeLine="31" fill="#F1F1F1" height="113.1875" id="LoadScene" rx="2.5" ry="2.5" style="stroke:#181818;stroke-width:0.5;" width="216" x="70" y="245"/><ellipse cx="134.75" cy="261" fill="#ADD1B2" rx="11" ry="11" style="stroke:#181818;stroke-width:1.0;"/><path d="M137.0938,256.6719 C136.1563,256.2344 135.5625,256.0938 134.6875,256.0938 C132.0625,256.0938 130.0625,258.1719 130.0625,260.8906 L130.0625,262.0156 C130.0625,264.5938 132.1719,266.4844 135.0625,266.4844 C136.2813,266.4844 137.4375,266.1875 138.1875,265.6406 C138.7656,265.2344 139.0938,264.7813 139.0938,264.3906 C139.0938,263.9375 138.7031,263.5469 138.2344,263.5469 C138.0156,263.5469 137.8125,263.625 137.625,263.8125 C137.1719,264.2969 137.1719,264.2969 136.9844,264.3906 C136.5625,264.6563 135.875,264.7813 135.1094,264.7813 C133.0625,264.7813 131.7656,263.6875 131.7656,261.9844 L131.7656,260.8906 C131.7656,259.1094 133.0156,257.7969 134.75,257.7969 C135.3281,257.7969 135.9375,257.9531 136.4063,258.2031 C136.8906,258.4844 137.0625,258.7031 137.1563,259.1094 C137.2188,259.5156 137.25,259.6406 137.3906,259.7656 C137.5313,259.9063 137.7656,260.0156 137.9844,260.0156 C138.25,260.0156 138.5156,259.875 138.6875,259.6563 C138.7969,259.5 138.8281,259.3125 138.8281,258.8906 L138.8281,257.4688 C138.8281,257.0313 138.8125,256.9063 138.7188,256.75 C138.5625,256.4844 138.2813,256.3438 137.9844,256.3438 C137.6875,256.3438 137.4844,256.4375 137.2656,256.75 L137.0938,256.6719 Z " fill="#000000"/><text fill="#000000" font-family="sans-serif" font-size="14" lengthAdjust="spacing" textLength="78" x="155.25" y="265.8467">LoadScene</text><line style="stroke:#181818;stroke-width:0.5;" x1="71" x2="285" y1="277" y2="277"/><rect fill="none" height="6" style="stroke:#C82930;stroke-width:1.0;" width="6" x="78" y="285"/><text fill="#000000" font-family="sans-serif" font-size="14" lengthAdjust="spacing" textLength="190" x="90" y="293.9951">MATCHMAKING_SCENE = 1</text><rect fill="none" height="6" style="stroke:#C82930;stroke-width:1.0;" width="6" x="78" y="301.2969"/><text fill="#000000" font-family="sans-serif" font-size="14" lengthAdjust="spacing" textLength="123" x="90" y="310.292">GAME_SCENE = 2</text><rect fill="none" height="6" style="stroke:#C82930;stroke-width:1.0;" width="6" x="78" y="317.5938"/><text fill="#000000" font-family="sans-serif" font-size="14" lengthAdjust="spacing" textLength="139" x="90" y="326.5889">WINNER_SCENE = 3</text><rect fill="none" height="6" style="stroke:#C82930;stroke-width:1.0;" width="6" x="78" y="333.8906"/><text fill="#000000" font-family="sans-serif" font-size="14" lengthAdjust="spacing" textLength="128" x="90" y="342.8857">LOSER_SCENE = 4</text><line style="stroke:#181818;stroke-width:0.5;" x1="71" x2="285" y1="350.1875" y2="350.1875"/></g><!--MD5=[3540325f36fb5dff783f7b37f3cd0b7c]
class OrderTypeLookupTable--><g id="elem_OrderTypeLookupTable"><rect codeLine="37" fill="#F1F1F1" height="113.1875" id="OrderTypeLookupTable" rx="2.5" ry="2.5" style="stroke:#181818;stroke-width:0.5;" width="202" x="321" y="245"/><ellipse cx="336" cy="261" fill="#ADD1B2" rx="11" ry="11" style="stroke:#181818;stroke-width:1.0;"/><path d="M338.3438,256.6719 C337.4063,256.2344 336.8125,256.0938 335.9375,256.0938 C333.3125,256.0938 331.3125,258.1719 331.3125,260.8906 L331.3125,262.0156 C331.3125,264.5938 333.4219,266.4844 336.3125,266.4844 C337.5313,266.4844 338.6875,266.1875 339.4375,265.6406 C340.0156,265.2344 340.3438,264.7813 340.3438,264.3906 C340.3438,263.9375 339.9531,263.5469 339.4844,263.5469 C339.2656,263.5469 339.0625,263.625 338.875,263.8125 C338.4219,264.2969 338.4219,264.2969 338.2344,264.3906 C337.8125,264.6563 337.125,264.7813 336.3594,264.7813 C334.3125,264.7813 333.0156,263.6875 333.0156,261.9844 L333.0156,260.8906 C333.0156,259.1094 334.2656,257.7969 336,257.7969 C336.5781,257.7969 337.1875,257.9531 337.6563,258.2031 C338.1406,258.4844 338.3125,258.7031 338.4063,259.1094 C338.4688,259.5156 338.5,259.6406 338.6406,259.7656 C338.7813,259.9063 339.0156,260.0156 339.2344,260.0156 C339.5,260.0156 339.7656,259.875 339.9375,259.6563 C340.0469,259.5 340.0781,259.3125 340.0781,258.8906 L340.0781,257.4688 C340.0781,257.0313 340.0625,256.9063 339.9688,256.75 C339.8125,256.4844 339.5313,256.3438 339.2344,256.3438 C338.9375,256.3438 338.7344,256.4375 338.5156,256.75 L338.3438,256.6719 Z " fill="#000000"/><text fill="#000000" font-family="sans-serif" font-size="14" lengthAdjust="spacing" textLength="170" x="350" y="265.8467">OrderTypeLookupTable</text><line style="stroke:#181818;stroke-width:0.5;" x1="322" x2="522" y1="277" y2="277"/><ellipse cx="332" cy="288" fill="none" rx="3" ry="3" style="stroke:#038048;stroke-width:1.0;"/><text fill="#000000" font-family="sans-serif" font-size="14" lengthAdjust="spacing" textLength="88" x="341" y="293.9951">Initialise = 0</text><ellipse cx="332" cy="304.2969" fill="none" rx="3" ry="3" style="stroke:#038048;stroke-width:1.0;"/><text fill="#000000" font-family="sans-serif" font-size="14" lengthAdjust="spacing" textLength="110" x="341" y="310.292">GameState = 1</text><ellipse cx="332" cy="320.5938" fill="none" rx="3" ry="3" style="stroke:#038048;stroke-width:1.0;"/><text fill="#000000" font-family="sans-serif" font-size="14" lengthAdjust="spacing" textLength="106" x="341" y="326.5889">LoadScene = 3</text><ellipse cx="332" cy="336.8906" fill="none" rx="3" ry="3" style="stroke:#038048;stroke-width:1.0;"/><text fill="#000000" font-family="sans-serif" font-size="14" lengthAdjust="spacing" textLength="105" x="341" y="342.8857">LoadImage = 4</text><line style="stroke:#181818;stroke-width:0.5;" x1="322" x2="522" y1="350.1875" y2="350.1875"/></g><!--MD5=[9944769981053e43239e30a25ad703bf]
class CommData--><g id="elem_CommData"><rect codeLine="43" fill="#F1F1F1" height="96.8906" id="CommData" rx="2.5" ry="2.5" style="stroke:#181818;stroke-width:0.5;" width="220" x="1061" y="47.5"/><ellipse cx="1087.25" cy="63.5" fill="#ADD1B2" rx="11" ry="11" style="stroke:#181818;stroke-width:1.0;"/><path d="M1089.5938,59.1719 C1088.6563,58.7344 1088.0625,58.5938 1087.1875,58.5938 C1084.5625,58.5938 1082.5625,60.6719 1082.5625,63.3906 L1082.5625,64.5156 C1082.5625,67.0938 1084.6719,68.9844 1087.5625,68.9844 C1088.7813,68.9844 1089.9375,68.6875 1090.6875,68.1406 C1091.2656,67.7344 1091.5938,67.2813 1091.5938,66.8906 C1091.5938,66.4375 1091.2031,66.0469 1090.7344,66.0469 C1090.5156,66.0469 1090.3125,66.125 1090.125,66.3125 C1089.6719,66.7969 1089.6719,66.7969 1089.4844,66.8906 C1089.0625,67.1563 1088.375,67.2813 1087.6094,67.2813 C1085.5625,67.2813 1084.2656,66.1875 1084.2656,64.4844 L1084.2656,63.3906 C1084.2656,61.6094 1085.5156,60.2969 1087.25,60.2969 C1087.8281,60.2969 1088.4375,60.4531 1088.9063,60.7031 C1089.3906,60.9844 1089.5625,61.2031 1089.6563,61.6094 C1089.7188,62.0156 1089.75,62.1406 1089.8906,62.2656 C1090.0313,62.4063 1090.2656,62.5156 1090.4844,62.5156 C1090.75,62.5156 1091.0156,62.375 1091.1875,62.1563 C1091.2969,62 1091.3281,61.8125 1091.3281,61.3906 L1091.3281,59.9688 C1091.3281,59.5313 1091.3125,59.4063 1091.2188,59.25 C1091.0625,58.9844 1090.7813,58.8438 1090.4844,58.8438 C1090.1875,58.8438 1089.9844,58.9375 1089.7656,59.25 L1089.5938,59.1719 Z " fill="#000000"/><text fill="#000000" font-family="sans-serif" font-size="14" lengthAdjust="spacing" textLength="81" x="1103.75" y="68.3467">CommData</text><rect fill="#FFFFFF" height="15.9688" style="stroke:#000000;stroke-width:1.0;stroke-dasharray:2.0,2.0;" width="80" x="1204" y="44.5"/><text fill="#000000" font-family="sans-serif" font-size="12" font-style="italic" lengthAdjust="spacing" textLength="78" x="1205" y="56.6387">type of value</text><line style="stroke:#181818;stroke-width:0.5;" x1="1062" x2="1280" y1="79.5" y2="79.5"/><polygon fill="none" points="1072,85.5,1076,89.5,1072,93.5,1068,89.5" style="stroke:#B38D22;stroke-width:1.0;"/><text fill="#000000" font-family="sans-serif" font-size="14" lengthAdjust="spacing" textLength="157" x="1081" y="96.4951">&lt;type of value&gt; value</text><line style="stroke:#181818;stroke-width:0.5;" x1="1062" x2="1280" y1="103.7969" y2="103.7969"/><ellipse cx="1072" cy="114.7969" fill="#84BE84" rx="3" ry="3" style="stroke:#038048;stroke-width:1.0;"/><text fill="#000000" font-family="sans-serif" font-size="14" lengthAdjust="spacing" textLength="188" x="1081" y="120.792">CommData(&lt;type&gt; value)</text><ellipse cx="1072" cy="131.0938" fill="#84BE84" rx="3" ry="3" style="stroke:#038048;stroke-width:1.0;"/><text fill="#000000" font-family="sans-serif" font-size="14" lengthAdjust="spacing" textLength="194" x="1081" y="137.0889">&lt;type of value&gt; getValue()</text></g><!--MD5=[cf4d6237fcae255cd2e1656cf84a30e2]
class Order--><g id="elem_Order"><rect codeLine="48" fill="#F1F1F1" height="80.5938" id="Order" rx="2.5" ry="2.5" style="stroke:#181818;stroke-width:0.5;" width="239" x="982.5" y="261"/><ellipse cx="1036.25" cy="277" fill="#ADD1B2" rx="11" ry="11" style="stroke:#181818;stroke-width:1.0;"/><path d="M1038.5938,272.6719 C1037.6563,272.2344 1037.0625,272.0938 1036.1875,272.0938 C1033.5625,272.0938 1031.5625,274.1719 1031.5625,276.8906 L1031.5625,278.0156 C1031.5625,280.5938 1033.6719,282.4844 1036.5625,282.4844 C1037.7813,282.4844 1038.9375,282.1875 1039.6875,281.6406 C1040.2656,281.2344 1040.5938,280.7813 1040.5938,280.3906 C1040.5938,279.9375 1040.2031,279.5469 1039.7344,279.5469 C1039.5156,279.5469 1039.3125,279.625 1039.125,279.8125 C1038.6719,280.2969 1038.6719,280.2969 1038.4844,280.3906 C1038.0625,280.6563 1037.375,280.7813 1036.6094,280.7813 C1034.5625,280.7813 1033.2656,279.6875 1033.2656,277.9844 L1033.2656,276.8906 C1033.2656,275.1094 1034.5156,273.7969 1036.25,273.7969 C1036.8281,273.7969 1037.4375,273.9531 1037.9063,274.2031 C1038.3906,274.4844 1038.5625,274.7031 1038.6563,275.1094 C1038.7188,275.5156 1038.75,275.6406 1038.8906,275.7656 C1039.0313,275.9063 1039.2656,276.0156 1039.4844,276.0156 C1039.75,276.0156 1040.0156,275.875 1040.1875,275.6563 C1040.2969,275.5 1040.3281,275.3125 1040.3281,274.8906 L1040.3281,273.4688 C1040.3281,273.0313 1040.3125,272.9063 1040.2188,272.75 C1040.0625,272.4844 1039.7813,272.3438 1039.4844,272.3438 C1039.1875,272.3438 1038.9844,272.4375 1038.7656,272.75 L1038.5938,272.6719 Z " fill="#000000"/><text fill="#000000" font-family="sans-serif" font-size="14" lengthAdjust="spacing" textLength="41" x="1056.75" y="281.8467">Order</text><rect fill="#FFFFFF" height="15.9688" style="stroke:#000000;stroke-width:1.0;stroke-dasharray:2.0,2.0;" width="80" x="1144.5" y="258"/><text fill="#000000" font-family="sans-serif" font-size="12" font-style="italic" lengthAdjust="spacing" textLength="78" x="1145.5" y="270.1387">type of value</text><line style="stroke:#181818;stroke-width:0.5;" x1="983.5" x2="1220.5" y1="293" y2="293"/><line style="stroke:#181818;stroke-width:0.5;" x1="983.5" x2="1220.5" y1="301" y2="301"/><ellipse cx="993.5" cy="312" fill="#84BE84" rx="3" ry="3" style="stroke:#038048;stroke-width:1.0;"/><text fill="#000000" font-family="sans-serif" font-size="14" lengthAdjust="spacing" textLength="213" x="1002.5" y="317.9951">Order(&lt;type of value&gt; value);</text><ellipse cx="993.5" cy="328.2969" fill="#84BE84" rx="3" ry="3" style="stroke:#038048;stroke-width:1.0;"/><text fill="#000000" font-family="sans-serif" font-size="14" lengthAdjust="spacing" textLength="55" x="1002.5" y="334.292">equals()</text></g><!--MD5=[cb90de322b018cbf647714665a308163]
class Reply--><g id="elem_Reply"><rect codeLine="52" fill="#F1F1F1" height="64.2969" id="Reply" rx="2.5" ry="2.5" style="stroke:#181818;stroke-width:0.5;" width="174" x="1257" y="269.5"/><ellipse cx="1280.55" cy="285.5" fill="#ADD1B2" rx="11" ry="11" style="stroke:#181818;stroke-width:1.0;"/><path d="M1282.8938,281.1719 C1281.9563,280.7344 1281.3625,280.5938 1280.4875,280.5938 C1277.8625,280.5938 1275.8625,282.6719 1275.8625,285.3906 L1275.8625,286.5156 C1275.8625,289.0938 1277.9719,290.9844 1280.8625,290.9844 C1282.0813,290.9844 1283.2375,290.6875 1283.9875,290.1406 C1284.5656,289.7344 1284.8938,289.2813 1284.8938,288.8906 C1284.8938,288.4375 1284.5031,288.0469 1284.0344,288.0469 C1283.8156,288.0469 1283.6125,288.125 1283.425,288.3125 C1282.9719,288.7969 1282.9719,288.7969 1282.7844,288.8906 C1282.3625,289.1563 1281.675,289.2813 1280.9094,289.2813 C1278.8625,289.2813 1277.5656,288.1875 1277.5656,286.4844 L1277.5656,285.3906 C1277.5656,283.6094 1278.8156,282.2969 1280.55,282.2969 C1281.1281,282.2969 1281.7375,282.4531 1282.2063,282.7031 C1282.6906,282.9844 1282.8625,283.2031 1282.9563,283.6094 C1283.0188,284.0156 1283.05,284.1406 1283.1906,284.2656 C1283.3313,284.4063 1283.5656,284.5156 1283.7844,284.5156 C1284.05,284.5156 1284.3156,284.375 1284.4875,284.1563 C1284.5969,284 1284.6281,283.8125 1284.6281,283.3906 L1284.6281,281.9688 C1284.6281,281.5313 1284.6125,281.4063 1284.5188,281.25 C1284.3625,280.9844 1284.0813,280.8438 1283.7844,280.8438 C1283.4875,280.8438 1283.2844,280.9375 1283.0656,281.25 L1282.8938,281.1719 Z " fill="#000000"/><text fill="#000000" font-family="sans-serif" font-size="14" lengthAdjust="spacing" textLength="41" x="1296.45" y="290.3467">Reply</text><rect fill="#FFFFFF" height="15.9688" style="stroke:#000000;stroke-width:1.0;stroke-dasharray:2.0,2.0;" width="80" x="1354" y="266.5"/><text fill="#000000" font-family="sans-serif" font-size="12" font-style="italic" lengthAdjust="spacing" textLength="78" x="1355" y="278.6387">type of value</text><line style="stroke:#181818;stroke-width:0.5;" x1="1258" x2="1430" y1="301.5" y2="301.5"/><line style="stroke:#181818;stroke-width:0.5;" x1="1258" x2="1430" y1="309.5" y2="309.5"/><ellipse cx="1268" cy="320.5" fill="#84BE84" rx="3" ry="3" style="stroke:#038048;stroke-width:1.0;"/><text fill="#000000" font-family="sans-serif" font-size="14" lengthAdjust="spacing" textLength="148" x="1277" y="326.4951">Reply(&lt;type&gt; value)</text></g><!--MD5=[48e88c162c5505361c629eb6ff3812a8]
class GameState--><g id="elem_GameState"><rect codeLine="58" fill="#F1F1F1" height="96.8906" id="GameState" rx="2.5" ry="2.5" style="stroke:#181818;stroke-width:0.5;" width="321" x="558.5" y="253"/><ellipse cx="618.25" cy="269" fill="#ADD1B2" rx="11" ry="11" style="stroke:#181818;stroke-width:1.0;"/><path d="M620.5938,264.6719 C619.6563,264.2344 619.0625,264.0938 618.1875,264.0938 C615.5625,264.0938 613.5625,266.1719 613.5625,268.8906 L613.5625,270.0156 C613.5625,272.5938 615.6719,274.4844 618.5625,274.4844 C619.7813,274.4844 620.9375,274.1875 621.6875,273.6406 C622.2656,273.2344 622.5938,272.7813 622.5938,272.3906 C622.5938,271.9375 622.2031,271.5469 621.7344,271.5469 C621.5156,271.5469 621.3125,271.625 621.125,271.8125 C620.6719,272.2969 620.6719,272.2969 620.4844,272.3906 C620.0625,272.6563 619.375,272.7813 618.6094,272.7813 C616.5625,272.7813 615.2656,271.6875 615.2656,269.9844 L615.2656,268.8906 C615.2656,267.1094 616.5156,265.7969 618.25,265.7969 C618.8281,265.7969 619.4375,265.9531 619.9063,266.2031 C620.3906,266.4844 620.5625,266.7031 620.6563,267.1094 C620.7188,267.5156 620.75,267.6406 620.8906,267.7656 C621.0313,267.9063 621.2656,268.0156 621.4844,268.0156 C621.75,268.0156 622.0156,267.875 622.1875,267.6563 C622.2969,267.5 622.3281,267.3125 622.3281,266.8906 L622.3281,265.4688 C622.3281,265.0313 622.3125,264.9063 622.2188,264.75 C622.0625,264.4844 621.7813,264.3438 621.4844,264.3438 C621.1875,264.3438 620.9844,264.4375 620.7656,264.75 L620.5938,264.6719 Z " fill="#000000"/><text fill="#000000" font-family="sans-serif" font-size="14" lengthAdjust="spacing" textLength="82" x="638.75" y="273.8467">GameState</text><rect fill="#FFFFFF" height="15.9688" style="stroke:#000000;stroke-width:1.0;stroke-dasharray:2.0,2.0;" width="109" x="773.5" y="250"/><text fill="#000000" font-family="sans-serif" font-size="12" font-style="italic" lengthAdjust="spacing" textLength="107" x="774.5" y="262.1387">in server package</text><line style="stroke:#181818;stroke-width:0.5;" x1="559.5" x2="878.5" y1="285" y2="285"/><ellipse cx="569.5" cy="296" fill="none" rx="3" ry="3" style="stroke:#038048;stroke-width:1.0;"/><text fill="#000000" font-family="sans-serif" font-size="14" lengthAdjust="spacing" textLength="220" x="578.5" y="301.9951">HashMap&lt;PlayerLT, int Score&gt;</text><text fill="#000000" font-family="sans-serif" font-size="14" lengthAdjust="spacing" textLength="237" x="578.5" y="318.292">Conversion from Play to PlayerLT</text><line style="stroke:#181818;stroke-width:0.5;" x1="559.5" x2="878.5" y1="325.5938" y2="325.5938"/><ellipse cx="569.5" cy="336.5938" fill="#84BE84" rx="3" ry="3" style="stroke:#038048;stroke-width:1.0;"/><text fill="#000000" font-family="sans-serif" font-size="14" lengthAdjust="spacing" textLength="295" x="578.5" y="342.5889">GameState(HashMap&lt;Player, int Score&gt;)</text></g><!--MD5=[68b397a6cc0db00cadb510cf20615fe4]
reverse link CommData to Order--><g id="link_CommData_Order"><path codeLine="55" d="M1148.32,163.896 C1137.43,196.02 1124.75,233.414 1115.41,260.9492 " fill="none" id="CommData-backto-Order" style="stroke:#181818;stroke-width:1.0;"/><polygon fill="none" points="1141.77,161.405,1154.82,144.712,1155.03,165.9,1141.77,161.405" style="stroke:#181818;stroke-width:1.0;"/></g><!--MD5=[86e6a6ba0b91dfc2ef550b7e503361ab]
reverse link CommData to Reply--><g id="link_CommData_Reply"><path codeLine="56" d="M1224.74,160.216 C1255.53,196.436 1292.82,240.3 1317.41,269.2264 " fill="none" id="CommData-backto-Reply" style="stroke:#181818;stroke-width:1.0;"/><polygon fill="none" points="1219.18,164.484,1211.56,144.712,1229.85,155.416,1219.18,164.484" style="stroke:#181818;stroke-width:1.0;"/></g><!--MD5=[882ee8971383f0b88d96a81b79983990]
@startuml
class ServerPacket {
    + byte packetType 
      [PacketType]
    + Order<?> orderType 
      [Initialise, GameState, LoadScene]
    + Packet(packetType, orderType, orderValue)
    + getPacketType()
    + getOrderType()
    + getOrderObj()
}
class ClientPacket {
    + byte packetType
      [replying to order, or sending a game input]
    + Order replyingTo
    + Reply<?> reply
    + ClientPacket(packetType, replyingTo, reply)
    + ClientPacket(packetType, value)
    + getPacketType()

    
}
class PacketType{
    - INITIALISE = 0
    - ORDER = 1
    - ORDER_REPLY = 2
    - LoadScene = 3
    - LOAD_IMAGE = 4
    - GameInput = 5
    - GameState = 6
}
class LoadScene{
    - MATCHMAKING_SCENE = 1
    - GAME_SCENE = 2
    - WINNER_SCENE = 3
    - LOSER_SCENE = 4
}
class OrderTypeLookupTable{
    + Initialise = 0
    + GameState = 1
    + LoadScene = 3
    + LoadImage = 4
}
class CommData<type of value>{
    # <type of value> value
    + CommData(<type> value)
    + <type of value> getValue()
}
class Order<type of value>{
    + Order(<type of value> value);
    + equals()
}
class Reply<type of value>{
    + Reply(<type> value)
}
CommData <|- - Order
CommData <|- - Reply
' Done by: Reply<T> extends CommData<T>
class GameState<in server package> {
    + HashMap<PlayerLT, int Score>
    + GameState(HashMap<Player, int Score>)
      Conversion from Play to PlayerLT

}
@enduml

@startuml
class ServerPacket {
    + byte packetType 
      [PacketType]
    + Order<?> orderType 
      [Initialise, GameState, LoadScene]
    + Packet(packetType, orderType, orderValue)
    + getPacketType()
    + getOrderType()
    + getOrderObj()
}
class ClientPacket {
    + byte packetType
      [replying to order, or sending a game input]
    + Order replyingTo
    + Reply<?> reply
    + ClientPacket(packetType, replyingTo, reply)
    + ClientPacket(packetType, value)
    + getPacketType()

    
}
class PacketType{
    - INITIALISE = 0
    - ORDER = 1
    - ORDER_REPLY = 2
    - LoadScene = 3
    - LOAD_IMAGE = 4
    - GameInput = 5
    - GameState = 6
}
class LoadScene{
    - MATCHMAKING_SCENE = 1
    - GAME_SCENE = 2
    - WINNER_SCENE = 3
    - LOSER_SCENE = 4
}
class OrderTypeLookupTable{
    + Initialise = 0
    + GameState = 1
    + LoadScene = 3
    + LoadImage = 4
}
class CommData<type of value>{
    # <type of value> value
    + CommData(<type> value)
    + <type of value> getValue()
}
class Order<type of value>{
    + Order(<type of value> value);
    + equals()
}
class Reply<type of value>{
    + Reply(<type> value)
}
CommData <|- - Order
CommData <|- - Reply
class GameState<in server package> {
    + HashMap<PlayerLT, int Score>
    + GameState(HashMap<Player, int Score>)
      Conversion from Play to PlayerLT

}
@enduml

PlantUML version 1.2022.4beta2(Unknown compile time)
(GPL source distribution)
Java Runtime: Java(TM) SE Runtime Environment
JVM: Java HotSpot(TM) 64-Bit Server VM
Default Encoding: UTF-8
Language: en
Country: US
--></g></svg>