<?xml version="1.0" encoding="UTF-8" standalone="no"?><svg xmlns="http://www.w3.org/2000/svg" xmlns:xlink="http://www.w3.org/1999/xlink" contentStyleType="text/css" height="327px" preserveAspectRatio="none" style="width:548px;height:327px;background:#FFFFFF;" version="1.1" viewBox="0 0 548 327" width="548px" zoomAndPan="magnify"><defs/><g><line style="stroke:#181818;stroke-width:0.5;stroke-dasharray:5.0,5.0;" x1="29" x2="29" y1="81.2969" y2="246.9609"/><line style="stroke:#181818;stroke-width:0.5;stroke-dasharray:5.0,5.0;" x1="331" x2="331" y1="81.2969" y2="246.9609"/><line style="stroke:#181818;stroke-width:0.5;stroke-dasharray:5.0,5.0;" x1="396" x2="396" y1="81.2969" y2="246.9609"/><line style="stroke:#181818;stroke-width:0.5;stroke-dasharray:5.0,5.0;" x1="501" x2="501" y1="81.2969" y2="246.9609"/><text fill="#000000" font-family="sans-serif" font-size="14" lengthAdjust="spacing" textLength="43" x="5" y="77.9951">Client</text><ellipse cx="29.5" cy="13.5" fill="#E2E2F0" rx="8" ry="8" style="stroke:#181818;stroke-width:0.5;"/><path d="M29.5,21.5 L29.5,48.5 M16.5,29.5 L42.5,29.5 M29.5,48.5 L16.5,63.5 M29.5,48.5 L42.5,63.5 " fill="none" style="stroke:#181818;stroke-width:0.5;"/><text fill="#000000" font-family="sans-serif" font-size="14" lengthAdjust="spacing" textLength="43" x="5" y="258.9561">Client</text><ellipse cx="29.5" cy="270.7578" fill="#E2E2F0" rx="8" ry="8" style="stroke:#181818;stroke-width:0.5;"/><path d="M29.5,278.7578 L29.5,305.7578 M16.5,286.7578 L42.5,286.7578 M29.5,305.7578 L16.5,320.7578 M29.5,305.7578 L42.5,320.7578 " fill="none" style="stroke:#181818;stroke-width:0.5;"/><rect fill="#E2E2F0" height="30.2969" rx="2.5" ry="2.5" style="stroke:#181818;stroke-width:0.5;" width="61" x="301" y="50"/><text fill="#000000" font-family="sans-serif" font-size="14" lengthAdjust="spacing" textLength="47" x="308" y="69.9951">Server</text><rect fill="#E2E2F0" height="30.2969" rx="2.5" ry="2.5" style="stroke:#181818;stroke-width:0.5;" width="61" x="301" y="245.9609"/><text fill="#000000" font-family="sans-serif" font-size="14" lengthAdjust="spacing" textLength="47" x="308" y="265.9561">Server</text><text fill="#000000" font-family="sans-serif" font-size="14" lengthAdjust="spacing" textLength="42" x="372" y="77.9951">Room</text><path d="M378,29 C378,19 396,19 396,19 C396,19 414,19 414,29 L414,55 C414,65 396,65 396,65 C396,65 378,65 378,55 L378,29 " fill="#E2E2F0" style="stroke:#181818;stroke-width:1.5;"/><path d="M378,29 C378,39 396,39 396,39 C396,39 414,39 414,29 " fill="none" style="stroke:#181818;stroke-width:1.5;"/><text fill="#000000" font-family="sans-serif" font-size="14" lengthAdjust="spacing" textLength="42" x="372" y="258.9561">Room</text><path d="M378,272.2578 C378,262.2578 396,262.2578 396,262.2578 C396,262.2578 414,262.2578 414,272.2578 L414,298.2578 C414,308.2578 396,308.2578 396,308.2578 C396,308.2578 378,308.2578 378,298.2578 L378,272.2578 " fill="#E2E2F0" style="stroke:#181818;stroke-width:1.5;"/><path d="M378,272.2578 C378,282.2578 396,282.2578 396,282.2578 C396,282.2578 414,282.2578 414,272.2578 " fill="none" style="stroke:#181818;stroke-width:1.5;"/><rect fill="#E2E2F0" height="30.2969" rx="2.5" ry="2.5" style="stroke:#181818;stroke-width:0.5;" width="82" x="460" y="50"/><text fill="#000000" font-family="sans-serif" font-size="14" lengthAdjust="spacing" textLength="68" x="467" y="69.9951">AllClients</text><rect fill="#E2E2F0" height="30.2969" rx="2.5" ry="2.5" style="stroke:#181818;stroke-width:0.5;" width="82" x="460" y="245.9609"/><text fill="#000000" font-family="sans-serif" font-size="14" lengthAdjust="spacing" textLength="68" x="467" y="265.9561">AllClients</text><polygon fill="#181818" points="319.5,108.4297,329.5,112.4297,319.5,116.4297,323.5,112.4297" style="stroke:#181818;stroke-width:1.0;"/><line style="stroke:#181818;stroke-width:1.0;" x1="29.5" x2="325.5" y1="112.4297" y2="112.4297"/><text fill="#000000" font-family="sans-serif" font-size="13" lengthAdjust="spacing" textLength="53" x="36.5" y="107.3638">Connect</text><polygon fill="#181818" points="40.5,137.5625,30.5,141.5625,40.5,145.5625,36.5,141.5625" style="stroke:#181818;stroke-width:1.0;"/><line style="stroke:#181818;stroke-width:1.0;" x1="34.5" x2="330.5" y1="141.5625" y2="141.5625"/><text fill="#000000" font-family="sans-serif" font-size="13" lengthAdjust="spacing" textLength="278" x="46.5" y="136.4966">Connection Accepted; connect to this room</text><polygon fill="#181818" points="384,166.6953,394,170.6953,384,174.6953,388,170.6953" style="stroke:#181818;stroke-width:1.0;"/><line style="stroke:#181818;stroke-width:1.0;" x1="29.5" x2="390" y1="170.6953" y2="170.6953"/><text fill="#000000" font-family="sans-serif" font-size="13" lengthAdjust="spacing" textLength="178" x="36.5" y="165.6294">Client connects to the room</text><polygon fill="#181818" points="40.5,195.8281,30.5,199.8281,40.5,203.8281,36.5,199.8281" style="stroke:#181818;stroke-width:1.0;"/><line style="stroke:#181818;stroke-width:1.0;" x1="34.5" x2="395" y1="199.8281" y2="199.8281"/><text fill="#000000" font-family="sans-serif" font-size="13" lengthAdjust="spacing" textLength="138" x="46.5" y="194.7622">Load this Hash image</text><polygon fill="#181818" points="489,224.9609,499,228.9609,489,232.9609,493,228.9609" style="stroke:#181818;stroke-width:1.0;"/><line style="stroke:#181818;stroke-width:1.0;" x1="396" x2="495" y1="228.9609" y2="228.9609"/><text fill="#000000" font-family="sans-serif" font-size="13" lengthAdjust="spacing" textLength="81" x="403" y="223.895">Starts Game</text><!--MD5=[3764d7a4a109966a492a0737d7eb56f2]
@startuml
actor Client as Client
participant Server as Server
database Room as Room
Client ->Server : Connect
Server -> Client : Connection Accepted; connect to this room
Client -> Room : Client connects to the room

Room -> Client : Load this Hash image
Room -> AllClients : Starts Game
@enduml

PlantUML version 1.2022.4beta2(Unknown compile time)
(GPL source distribution)
Java Runtime: Java(TM) SE Runtime Environment
JVM: Java HotSpot(TM) 64-Bit Server VM
Default Encoding: UTF-8
Language: en
Country: US
--></g></svg>