<?xml version="1.0" encoding="UTF-8" standalone="no"?><svg xmlns="http://www.w3.org/2000/svg" xmlns:xlink="http://www.w3.org/1999/xlink" contentStyleType="text/css" height="347px" preserveAspectRatio="none" style="width:381px;height:347px;background:#FFFFFF;" version="1.1" viewBox="0 0 381 347" width="381px" zoomAndPan="magnify"><defs/><g><rect height="11.6406" style="stroke:#00000000;stroke-width:1.0;fill:none;" width="179" x="189" y="10"/><text fill="#888888" font-family="sans-serif" font-size="10" lengthAdjust="spacing" textLength="179" x="189" y="19.2822">GameMode InputPhase flowchart</text><ellipse cx="189.5" cy="32.6406" fill="#222222" rx="10" ry="10" style="stroke:#222222;stroke-width:1.0;"/><rect fill="#F1F1F1" height="33.9688" rx="12.5" ry="12.5" style="stroke:#181818;stroke-width:0.5;" width="122" x="128.5" y="62.6406"/><text fill="#000000" font-family="sans-serif" font-size="12" lengthAdjust="spacing" textLength="102" x="138.5" y="83.7793">set nextTickTime</text><rect fill="#F1F1F1" height="33.9688" rx="12.5" ry="12.5" style="stroke:#181818;stroke-width:0.5;" width="307" x="36" y="172.3198"/><text fill="#000000" font-family="sans-serif" font-size="12" lengthAdjust="spacing" textLength="287" x="46" y="193.4585">Accept data packets and store them in a queue</text><polygon fill="#F1F1F1" points="100.5,116.6094,278.5,116.6094,290.5,128.6094,278.5,140.6094,100.5,140.6094,88.5,128.6094,100.5,116.6094" style="stroke:#181818;stroke-width:0.5;"/><text fill="#000000" font-family="sans-serif" font-size="11" lengthAdjust="spacing" textLength="20" x="193.5" y="150.8198">no?</text><text fill="#000000" font-family="sans-serif" font-size="11" lengthAdjust="spacing" textLength="178" x="100.5" y="132.4175">currentTime == nextTickTime?</text><text fill="#000000" font-family="sans-serif" font-size="11" lengthAdjust="spacing" textLength="21" x="67.5" y="126.0151">yes</text><rect fill="#F1F1F1" height="47.9375" rx="12.5" ry="12.5" style="stroke:#181818;stroke-width:0.5;" width="201" x="89" y="248.2886"/><text fill="#000000" font-family="sans-serif" font-size="12" lengthAdjust="spacing" textLength="178" x="99" y="269.4272">process the remaining queue</text><text fill="#000000" font-family="sans-serif" font-size="12" lengthAdjust="spacing" textLength="181" x="99" y="283.396">(run some function PlayTurn())</text><ellipse cx="189.5" cy="326.2261" rx="10" ry="10" style="stroke:#222222;stroke-width:1.5;fill:none;"/><line style="stroke:#222222;stroke-width:2.5;fill:none;" x1="183.3128" x2="195.6872" y1="320.0389" y2="332.4133"/><line style="stroke:#222222;stroke-width:2.5;fill:none;" x1="195.6872" x2="183.3128" y1="320.0389" y2="332.4133"/><line style="stroke:#181818;stroke-width:1.0;fill:none;" x1="189.5" x2="189.5" y1="42.6406" y2="62.6406"/><polygon fill="#181818" points="185.5,52.6406,189.5,62.6406,193.5,52.6406,189.5,56.6406" style="stroke:#181818;stroke-width:1.0;"/><line style="stroke:#181818;stroke-width:1.0;" x1="189.5" x2="189.5" y1="140.6094" y2="172.3198"/><polygon fill="#181818" points="185.5,162.3198,189.5,172.3198,193.5,162.3198,189.5,166.3198" style="stroke:#181818;stroke-width:1.0;"/><line style="stroke:#181818;stroke-width:1.0;" x1="189.5" x2="189.5" y1="206.2886" y2="216.2886"/><line style="stroke:#181818;stroke-width:1.0;" x1="189.5" x2="355" y1="216.2886" y2="216.2886"/><polygon fill="#181818" points="351,180.9019,355,170.9019,359,180.9019,355,176.9019" style="stroke:#181818;stroke-width:1.0;"/><line style="stroke:#181818;stroke-width:1.0;" x1="355" x2="355" y1="128.6094" y2="216.2886"/><line style="stroke:#181818;stroke-width:1.0;" x1="355" x2="290.5" y1="128.6094" y2="128.6094"/><polygon fill="#181818" points="300.5,124.6094,290.5,128.6094,300.5,132.6094,296.5,128.6094" style="stroke:#181818;stroke-width:1.0;"/><line style="stroke:#181818;stroke-width:1.0;" x1="88.5" x2="24" y1="128.6094" y2="128.6094"/><polygon fill="#181818" points="20,166.9019,24,176.9019,28,166.9019,24,170.9019" style="stroke:#181818;stroke-width:1.0;"/><line style="stroke:#181818;stroke-width:1.0;" x1="24" x2="24" y1="128.6094" y2="228.2886"/><line style="stroke:#181818;stroke-width:1.0;" x1="24" x2="189.5" y1="228.2886" y2="228.2886"/><line style="stroke:#181818;stroke-width:1.0;" x1="189.5" x2="189.5" y1="228.2886" y2="248.2886"/><polygon fill="#181818" points="185.5,238.2886,189.5,248.2886,193.5,238.2886,189.5,242.2886" style="stroke:#181818;stroke-width:1.0;"/><line style="stroke:#181818;stroke-width:1.0;" x1="189.5" x2="189.5" y1="96.6094" y2="116.6094"/><polygon fill="#181818" points="185.5,106.6094,189.5,116.6094,193.5,106.6094,189.5,110.6094" style="stroke:#181818;stroke-width:1.0;"/><line style="stroke:#181818;stroke-width:1.0;" x1="189.5" x2="189.5" y1="296.2261" y2="316.2261"/><polygon fill="#181818" points="185.5,306.2261,189.5,316.2261,193.5,306.2261,189.5,310.2261" style="stroke:#181818;stroke-width:1.0;"/><!--MD5=[bf386a1ee997d55066296f697e88806e]
@startuml
header GameMode InputPhase flowchart
start
:set nextTickTime;
while (currentTime == nextTickTime?) is (no?)
    :Accept data packets and store them in a queue;
endwhile (yes) 
:process the remaining queue
(run some function PlayTurn());
end
@enduml

PlantUML version 1.2022.4beta2(Unknown compile time)
(GPL source distribution)
Java Runtime: Java(TM) SE Runtime Environment
JVM: Java HotSpot(TM) 64-Bit Server VM
Default Encoding: UTF-8
Language: en
Country: US
--></g></svg>