<?xml version="1.0" encoding="UTF-8" standalone="no"?><svg xmlns="http://www.w3.org/2000/svg" xmlns:xlink="http://www.w3.org/1999/xlink" contentStyleType="text/css" height="989px" preserveAspectRatio="none" style="width:603px;height:989px;background:#FFFFFF;" version="1.1" viewBox="0 0 603 989" width="603px" zoomAndPan="magnify"><defs/><g><ellipse cx="287.5" cy="20" fill="#222222" rx="10" ry="10" style="stroke:#222222;stroke-width:1.0;"/><rect fill="#F1F1F1" height="33.9688" rx="12.5" ry="12.5" style="stroke:#181818;stroke-width:0.5;" width="289" x="143" y="50"/><text fill="#000000" font-family="sans-serif" font-size="12" lengthAdjust="spacing" textLength="269" x="153" y="71.1387">Send all clients show GameScreen message</text><rect fill="#F1F1F1" height="33.9688" rx="12.5" ry="12.5" style="stroke:#181818;stroke-width:0.5;" width="224" x="175.5" y="103.9688"/><text fill="#000000" font-family="sans-serif" font-size="12" lengthAdjust="spacing" textLength="200" x="189.5" y="125.1074">Sends instruction to LOAD_IMAGE</text><rect fill="#F1F1F1" height="33.9688" rx="12.5" ry="12.5" style="stroke:#181818;stroke-width:0.5;" width="129" x="223" y="157.9375"/><text fill="#000000" font-family="sans-serif" font-size="12" lengthAdjust="spacing" textLength="109" x="233" y="179.0762">Room.startSetup()</text><rect fill="#555555" height="6" rx="2.5" ry="2.5" style="stroke:#555555;stroke-width:1.0;" width="556.25" x="11" y="211.9063"/><polygon fill="#F1F1F1" points="149.25,293.6167,395.25,293.6167,407.25,305.6167,395.25,317.6167,149.25,317.6167,137.25,305.6167,149.25,293.6167" style="stroke:#181818;stroke-width:0.5;"/><text fill="#000000" font-family="sans-serif" font-size="11" lengthAdjust="spacing" textLength="246" x="149.25" y="309.4248">clientRequestsSomething (prolly in String?)</text><rect fill="#F1F1F1" height="47.9375" rx="12.5" ry="12.5" style="stroke:#181818;stroke-width:0.5;" width="153" x="45.75" y="360.4214"/><text fill="#000000" font-family="sans-serif" font-size="12" lengthAdjust="spacing" textLength="133" x="55.75" y="381.5601">client sends message</text><text fill="#000000" font-family="sans-serif" font-size="12" lengthAdjust="spacing" textLength="131" x="55.75" y="395.5288">asking for imageHash</text><rect fill="#F1F1F1" height="33.9688" rx="12.5" ry="12.5" style="stroke:#181818;stroke-width:0.5;" width="121" x="61.75" y="434.0503"/><text fill="#000000" font-family="sans-serif" font-size="12" lengthAdjust="spacing" textLength="101" x="71.75" y="455.189">send imageHash</text><rect fill="#F1F1F1" height="47.9375" rx="12.5" ry="12.5" style="stroke:#181818;stroke-width:0.5;" width="138" x="353.25" y="360.4214"/><text fill="#000000" font-family="sans-serif" font-size="12" lengthAdjust="spacing" textLength="118" x="363.25" y="381.5601">update that Player's</text><text fill="#000000" font-family="sans-serif" font-size="12" lengthAdjust="spacing" textLength="97" x="363.25" y="395.5288">isLoaded = true</text><polygon fill="#F1F1F1" points="272.25,478.019,272.25,478.019,284.25,490.019,272.25,502.019,272.25,502.019,260.25,490.019,272.25,478.019" style="stroke:#181818;stroke-width:0.5;"/><polygon fill="#F1F1F1" points="172.25,237.9063,372.25,237.9063,384.25,249.9063,372.25,261.9063,172.25,261.9063,160.25,249.9063,172.25,237.9063" style="stroke:#181818;stroke-width:0.5;"/><text fill="#000000" font-family="sans-serif" font-size="11" lengthAdjust="spacing" textLength="25" x="276.25" y="272.1167">no :/</text><text fill="#000000" font-family="sans-serif" font-size="11" lengthAdjust="spacing" textLength="200" x="172.25" y="253.7144">Have all clients loaded the image?</text><text fill="#000000" font-family="sans-serif" font-size="11" lengthAdjust="spacing" textLength="82" x="78.25" y="247.312">all loaded ^-^</text><rect fill="#555555" height="6" rx="2.5" ry="2.5" style="stroke:#555555;stroke-width:1.0;" width="556.25" x="11" y="544.019"/><rect fill="#F1F1F1" height="33.9688" rx="12.5" ry="12.5" style="stroke:#181818;stroke-width:0.5;" width="134" x="220.5" y="570.019"/><text fill="#000000" font-family="sans-serif" font-size="12" lengthAdjust="spacing" textLength="114" x="230.5" y="591.1577">send GamesScene</text><rect fill="#F1F1F1" height="33.9688" rx="12.5" ry="12.5" style="stroke:#181818;stroke-width:0.5;" width="109" x="233" y="623.9878"/><text fill="#000000" font-family="sans-serif" font-size="12" lengthAdjust="spacing" textLength="89" x="243" y="645.1265">start tick count</text><polygon fill="#F1F1F1" points="247,721.9565,328,721.9565,340,733.9565,328,745.9565,247,745.9565,235,733.9565,247,721.9565" style="stroke:#181818;stroke-width:0.5;"/><text fill="#000000" font-family="sans-serif" font-size="11" lengthAdjust="spacing" textLength="81" x="247" y="737.7646">tick &lt; tickRate</text><text fill="#000000" font-family="sans-serif" font-size="11" lengthAdjust="spacing" textLength="21" x="214" y="731.3623">yes</text><text fill="#000000" font-family="sans-serif" font-size="11" lengthAdjust="spacing" textLength="14" x="340" y="731.3623">no</text><rect fill="#F1F1F1" height="47.9375" rx="12.5" ry="12.5" style="stroke:#181818;stroke-width:0.5;" width="200" x="56" y="755.9565"/><text fill="#000000" font-family="sans-serif" font-size="12" lengthAdjust="spacing" textLength="180" x="66" y="777.0952">collect and verify and sanitise</text><text fill="#000000" font-family="sans-serif" font-size="12" lengthAdjust="spacing" textLength="60" x="66" y="791.064">user input</text><rect fill="#F1F1F1" height="33.9688" rx="12.5" ry="12.5" style="stroke:#181818;stroke-width:0.5;" width="214" x="49" y="838.894"/><text fill="#000000" font-family="sans-serif" font-size="12" lengthAdjust="spacing" textLength="194" x="59" y="860.0327">tick = time.now() - tickStartTime</text><rect fill="#F1F1F1" height="33.9688" rx="12.5" ry="12.5" style="stroke:#181818;stroke-width:0.5;" width="180" x="329" y="755.9565"/><text fill="#000000" font-family="sans-serif" font-size="12" lengthAdjust="spacing" textLength="160" x="339" y="777.0952">tickStartTime = time.now()</text><rect fill="#F1F1F1" height="33.9688" rx="12.5" ry="12.5" style="stroke:#181818;stroke-width:0.5;" width="272" x="283" y="824.9253"/><text fill="#000000" font-family="sans-serif" font-size="12" lengthAdjust="spacing" textLength="252" x="293" y="846.064">GameMode.playTurn(userInput dictionary)</text><polygon fill="#F1F1F1" points="287.5,878.8628,299.5,890.8628,287.5,902.8628,275.5,890.8628,287.5,878.8628" style="stroke:#181818;stroke-width:0.5;"/><polygon fill="#F1F1F1" points="208,677.9565,367,677.9565,379,689.9565,367,701.9565,208,701.9565,196,689.9565,208,677.9565" style="stroke:#181818;stroke-width:0.5;"/><text fill="#000000" font-family="sans-serif" font-size="11" lengthAdjust="spacing" textLength="159" x="208" y="693.7646">GameMode.ended() != true</text><rect fill="#F1F1F1" height="33.9688" rx="12.5" ry="12.5" style="stroke:#181818;stroke-width:0.5;" width="207" x="184" y="944.8628"/><text fill="#000000" font-family="sans-serif" font-size="12" lengthAdjust="spacing" textLength="187" x="194" y="966.0015">game ends (Room.endGame())</text><line style="stroke:#181818;stroke-width:1.0;" x1="287.5" x2="287.5" y1="30" y2="50"/><polygon fill="#181818" points="283.5,40,287.5,50,291.5,40,287.5,44" style="stroke:#181818;stroke-width:1.0;"/><line style="stroke:#181818;stroke-width:1.0;" x1="287.5" x2="287.5" y1="83.9688" y2="103.9688"/><polygon fill="#181818" points="283.5,93.9688,287.5,103.9688,291.5,93.9688,287.5,97.9688" style="stroke:#181818;stroke-width:1.0;"/><line style="stroke:#181818;stroke-width:1.0;" x1="287.5" x2="287.5" y1="137.9375" y2="157.9375"/><polygon fill="#181818" points="283.5,147.9375,287.5,157.9375,291.5,147.9375,287.5,151.9375" style="stroke:#181818;stroke-width:1.0;"/><line style="stroke:#181818;stroke-width:1.0;" x1="122.25" x2="122.25" y1="408.3589" y2="434.0503"/><polygon fill="#181818" points="118.25,424.0503,122.25,434.0503,126.25,424.0503,122.25,428.0503" style="stroke:#181818;stroke-width:1.0;"/><line style="stroke:#181818;stroke-width:1.0;" x1="137.25" x2="122.25" y1="305.6167" y2="305.6167"/><line style="stroke:#181818;stroke-width:1.0;" x1="122.25" x2="122.25" y1="305.6167" y2="360.4214"/><polygon fill="#181818" points="118.25,350.4214,122.25,360.4214,126.25,350.4214,122.25,354.4214" style="stroke:#181818;stroke-width:1.0;"/><text fill="#000000" font-family="sans-serif" font-size="11" lengthAdjust="spacing" textLength="99" x="122.25" y="338.9214">send image hash</text><line style="stroke:#181818;stroke-width:1.0;" x1="407.25" x2="422.25" y1="305.6167" y2="305.6167"/><line style="stroke:#181818;stroke-width:1.0;" x1="422.25" x2="422.25" y1="305.6167" y2="360.4214"/><polygon fill="#181818" points="418.25,350.4214,422.25,360.4214,426.25,350.4214,422.25,354.4214" style="stroke:#181818;stroke-width:1.0;"/><text fill="#000000" font-family="sans-serif" font-size="11" lengthAdjust="spacing" textLength="119" x="422.25" y="338.9214">i have loaded image</text><line style="stroke:#181818;stroke-width:1.0;" x1="122.25" x2="122.25" y1="468.019" y2="490.019"/><line style="stroke:#181818;stroke-width:1.0;" x1="122.25" x2="260.25" y1="490.019" y2="490.019"/><polygon fill="#181818" points="250.25,486.019,260.25,490.019,250.25,494.019,254.25,490.019" style="stroke:#181818;stroke-width:1.0;"/><line style="stroke:#181818;stroke-width:1.0;" x1="422.25" x2="422.25" y1="408.3589" y2="490.019"/><line style="stroke:#181818;stroke-width:1.0;" x1="422.25" x2="284.25" y1="490.019" y2="490.019"/><polygon fill="#181818" points="294.25,486.019,284.25,490.019,294.25,494.019,290.25,490.019" style="stroke:#181818;stroke-width:1.0;"/><line style="stroke:#181818;stroke-width:1.0;" x1="272.25" x2="272.25" y1="261.9063" y2="293.6167"/><polygon fill="#181818" points="268.25,283.6167,272.25,293.6167,276.25,283.6167,272.25,287.6167" style="stroke:#181818;stroke-width:1.0;"/><line style="stroke:#181818;stroke-width:1.0;" x1="272.25" x2="272.25" y1="502.019" y2="512.019"/><line style="stroke:#181818;stroke-width:1.0;" x1="272.25" x2="553.25" y1="512.019" y2="512.019"/><polygon fill="#181818" points="549.25,432.3589,553.25,422.3589,557.25,432.3589,553.25,428.3589" style="stroke:#181818;stroke-width:1.0;"/><line style="stroke:#181818;stroke-width:1.0;" x1="553.25" x2="553.25" y1="249.9063" y2="512.019"/><line style="stroke:#181818;stroke-width:1.0;" x1="553.25" x2="384.25" y1="249.9063" y2="249.9063"/><polygon fill="#181818" points="394.25,245.9063,384.25,249.9063,394.25,253.9063,390.25,249.9063" style="stroke:#181818;stroke-width:1.0;"/><line style="stroke:#181818;stroke-width:1.0;" x1="160.25" x2="33.75" y1="249.9063" y2="249.9063"/><polygon fill="#181818" points="29.75,418.3589,33.75,428.3589,37.75,418.3589,33.75,422.3589" style="stroke:#181818;stroke-width:1.0;"/><line style="stroke:#181818;stroke-width:1.0;" x1="33.75" x2="33.75" y1="249.9063" y2="524.019"/><line style="stroke:#181818;stroke-width:1.0;" x1="33.75" x2="272.25" y1="524.019" y2="524.019"/><line style="stroke:#181818;stroke-width:1.0;" x1="272.25" x2="272.25" y1="524.019" y2="544.019"/><polygon fill="#181818" points="268.25,534.019,272.25,544.019,276.25,534.019,272.25,538.019" style="stroke:#181818;stroke-width:1.0;"/><line style="stroke:#181818;stroke-width:1.0;" x1="272.25" x2="272.25" y1="217.9063" y2="237.9063"/><polygon fill="#181818" points="268.25,227.9063,272.25,237.9063,276.25,227.9063,272.25,231.9063" style="stroke:#181818;stroke-width:1.0;"/><line style="stroke:#181818;stroke-width:1.0;" x1="287.5" x2="287.5" y1="191.9063" y2="211.9063"/><polygon fill="#181818" points="283.5,201.9063,287.5,211.9063,291.5,201.9063,287.5,205.9063" style="stroke:#181818;stroke-width:1.0;"/><line style="stroke:#181818;stroke-width:1.0;" x1="287.5" x2="287.5" y1="550.019" y2="570.019"/><polygon fill="#181818" points="283.5,560.019,287.5,570.019,291.5,560.019,287.5,564.019" style="stroke:#181818;stroke-width:1.0;"/><line style="stroke:#181818;stroke-width:1.0;" x1="287.5" x2="287.5" y1="603.9878" y2="623.9878"/><polygon fill="#181818" points="283.5,613.9878,287.5,623.9878,291.5,613.9878,287.5,617.9878" style="stroke:#181818;stroke-width:1.0;"/><line style="stroke:#181818;stroke-width:1.0;" x1="156" x2="156" y1="803.894" y2="838.894"/><polygon fill="#181818" points="152,828.894,156,838.894,160,828.894,156,832.894" style="stroke:#181818;stroke-width:1.0;"/><line style="stroke:#181818;stroke-width:1.0;" x1="419" x2="419" y1="789.9253" y2="824.9253"/><polygon fill="#181818" points="415,814.9253,419,824.9253,423,814.9253,419,818.9253" style="stroke:#181818;stroke-width:1.0;"/><line style="stroke:#181818;stroke-width:1.0;" x1="235" x2="156" y1="733.9565" y2="733.9565"/><line style="stroke:#181818;stroke-width:1.0;" x1="156" x2="156" y1="733.9565" y2="755.9565"/><polygon fill="#181818" points="152,745.9565,156,755.9565,160,745.9565,156,749.9565" style="stroke:#181818;stroke-width:1.0;"/><line style="stroke:#181818;stroke-width:1.0;" x1="340" x2="419" y1="733.9565" y2="733.9565"/><line style="stroke:#181818;stroke-width:1.0;" x1="419" x2="419" y1="733.9565" y2="755.9565"/><polygon fill="#181818" points="415,745.9565,419,755.9565,423,745.9565,419,749.9565" style="stroke:#181818;stroke-width:1.0;"/><line style="stroke:#181818;stroke-width:1.0;" x1="156" x2="156" y1="872.8628" y2="890.8628"/><line style="stroke:#181818;stroke-width:1.0;" x1="156" x2="275.5" y1="890.8628" y2="890.8628"/><polygon fill="#181818" points="265.5,886.8628,275.5,890.8628,265.5,894.8628,269.5,890.8628" style="stroke:#181818;stroke-width:1.0;"/><line style="stroke:#181818;stroke-width:1.0;" x1="419" x2="419" y1="858.894" y2="890.8628"/><line style="stroke:#181818;stroke-width:1.0;" x1="419" x2="299.5" y1="890.8628" y2="890.8628"/><polygon fill="#181818" points="309.5,886.8628,299.5,890.8628,309.5,894.8628,305.5,890.8628" style="stroke:#181818;stroke-width:1.0;"/><line style="stroke:#181818;stroke-width:1.0;" x1="287.5" x2="287.5" y1="701.9565" y2="721.9565"/><polygon fill="#181818" points="283.5,711.9565,287.5,721.9565,291.5,711.9565,287.5,715.9565" style="stroke:#181818;stroke-width:1.0;"/><line style="stroke:#181818;stroke-width:1.0;" x1="287.5" x2="287.5" y1="902.8628" y2="912.8628"/><line style="stroke:#181818;stroke-width:1.0;" x1="287.5" x2="577" y1="912.8628" y2="912.8628"/><polygon fill="#181818" points="573,810.4097,577,800.4097,581,810.4097,577,806.4097" style="stroke:#181818;stroke-width:1.0;"/><line style="stroke:#181818;stroke-width:1.0;" x1="577" x2="577" y1="689.9565" y2="912.8628"/><line style="stroke:#181818;stroke-width:1.0;" x1="577" x2="379" y1="689.9565" y2="689.9565"/><polygon fill="#181818" points="389,685.9565,379,689.9565,389,693.9565,385,689.9565" style="stroke:#181818;stroke-width:1.0;"/><line style="stroke:#181818;stroke-width:1.0;" x1="196" x2="27" y1="689.9565" y2="689.9565"/><polygon fill="#181818" points="23,796.4097,27,806.4097,31,796.4097,27,800.4097" style="stroke:#181818;stroke-width:1.0;"/><line style="stroke:#181818;stroke-width:1.0;" x1="27" x2="27" y1="689.9565" y2="924.8628"/><line style="stroke:#181818;stroke-width:1.0;" x1="27" x2="287.5" y1="924.8628" y2="924.8628"/><line style="stroke:#181818;stroke-width:1.0;" x1="287.5" x2="287.5" y1="924.8628" y2="944.8628"/><polygon fill="#181818" points="283.5,934.8628,287.5,944.8628,291.5,934.8628,287.5,938.8628" style="stroke:#181818;stroke-width:1.0;"/><line style="stroke:#181818;stroke-width:1.0;" x1="287.5" x2="287.5" y1="657.9565" y2="677.9565"/><polygon fill="#181818" points="283.5,667.9565,287.5,677.9565,291.5,667.9565,287.5,671.9565" style="stroke:#181818;stroke-width:1.0;"/><!--MD5=[7d8f2046f64b8f3045f1254707497794]
@startuml
start
:Send all clients show GameScreen message;
: Sends instruction to LOAD_IMAGE;
:Room.startSetup();
fork
    while (Have all clients loaded the image?) is (no :/)

        switch (clientRequestsSomething (prolly in String?))
        case (send image hash)
            :client sends message
            asking for imageHash;
            :send imageHash;
        case (i have loaded image)
            :update that Player's
            isLoaded = true;
        endswitch
    endwhile (all loaded ^-^)
end fork
:send GamesScene;
:start tick count;
while (GameMode.ended() != true)
    if (tick < tickRate) then (yes)
        :collect and verify and sanitise
        user input;
        :tick = time.now() - tickStartTime;
    else (no)
        :tickStartTime = time.now();
        :GameMode.playTurn(userInput dictionary);
    endif
endwhile
    :game ends (Room.endGame());
@enduml

PlantUML version 1.2022.4beta2(Unknown compile time)
(GPL source distribution)
Java Runtime: Java(TM) SE Runtime Environment
JVM: Java HotSpot(TM) 64-Bit Server VM
Default Encoding: UTF-8
Language: en
Country: US
--></g></svg>