<?xml version="1.0" encoding="UTF-8" standalone="no"?><svg xmlns="http://www.w3.org/2000/svg" xmlns:xlink="http://www.w3.org/1999/xlink" contentStyleType="text/css" height="615px" preserveAspectRatio="none" style="width:511px;height:615px;background:#FFFFFF;" version="1.1" viewBox="0 0 511 615" width="511px" zoomAndPan="magnify"><defs/><g><line style="stroke:#181818;stroke-width:0.5;stroke-dasharray:5.0,5.0;" x1="33" x2="33" y1="81.2969" y2="535.1563"/><line style="stroke:#181818;stroke-width:0.5;stroke-dasharray:5.0,5.0;" x1="236" x2="236" y1="81.2969" y2="535.1563"/><line style="stroke:#181818;stroke-width:0.5;stroke-dasharray:5.0,5.0;" x1="474.5" x2="474.5" y1="81.2969" y2="535.1563"/><rect fill="#E2E2F0" height="30.2969" rx="2.5" ry="2.5" style="stroke:#181818;stroke-width:0.5;" width="56" x="5" y="50"/><text fill="#000000" font-family="sans-serif" font-size="14" lengthAdjust="spacing" textLength="42" x="12" y="69.9951">Room</text><rect fill="#E2E2F0" height="30.2969" rx="2.5" ry="2.5" style="stroke:#181818;stroke-width:0.5;" width="56" x="5" y="534.1563"/><text fill="#000000" font-family="sans-serif" font-size="14" lengthAdjust="spacing" textLength="42" x="12" y="554.1514">Room</text><rect fill="#E2E2F0" height="30.2969" rx="2.5" ry="2.5" style="stroke:#181818;stroke-width:0.5;" width="58" x="207" y="50"/><text fill="#000000" font-family="sans-serif" font-size="14" lengthAdjust="spacing" textLength="44" x="214" y="69.9951">Player</text><rect fill="#E2E2F0" height="30.2969" rx="2.5" ry="2.5" style="stroke:#181818;stroke-width:0.5;" width="58" x="207" y="534.1563"/><text fill="#000000" font-family="sans-serif" font-size="14" lengthAdjust="spacing" textLength="44" x="214" y="554.1514">Player</text><text fill="#000000" font-family="sans-serif" font-size="14" lengthAdjust="spacing" textLength="43" x="450.5" y="77.9951">Client</text><ellipse cx="475" cy="13.5" fill="#E2E2F0" rx="8" ry="8" style="stroke:#181818;stroke-width:0.5;"/><path d="M475,21.5 L475,48.5 M462,29.5 L488,29.5 M475,48.5 L462,63.5 M475,48.5 L488,63.5 " fill="none" style="stroke:#181818;stroke-width:0.5;"/><text fill="#000000" font-family="sans-serif" font-size="14" lengthAdjust="spacing" textLength="43" x="450.5" y="547.1514">Client</text><ellipse cx="475" cy="558.9531" fill="#E2E2F0" rx="8" ry="8" style="stroke:#181818;stroke-width:0.5;"/><path d="M475,566.9531 L475,593.9531 M462,574.9531 L488,574.9531 M475,593.9531 L462,608.9531 M475,593.9531 L488,608.9531 " fill="none" style="stroke:#181818;stroke-width:0.5;"/><rect fill="#EEEEEE" height="3" style="stroke:#EEEEEE;stroke-width:1.0;" width="504.5" x="0" y="111.8633"/><line style="stroke:#000000;stroke-width:1.0;" x1="0" x2="504.5" y1="111.8633" y2="111.8633"/><line style="stroke:#000000;stroke-width:1.0;" x1="0" x2="504.5" y1="114.8633" y2="114.8633"/><rect fill="#EEEEEE" height="23.1328" style="stroke:#000000;stroke-width:2.0;" width="114" x="195.25" y="101.2969"/><text fill="#000000" font-family="sans-serif" font-size="13" font-weight="bold" lengthAdjust="spacing" textLength="95" x="201.25" y="117.3638">Initialisation</text><line style="stroke:#181818;stroke-width:1.0;" x1="33" x2="75" y1="155.5625" y2="155.5625"/><line style="stroke:#181818;stroke-width:1.0;" x1="75" x2="75" y1="155.5625" y2="168.5625"/><line style="stroke:#181818;stroke-width:1.0;" x1="34" x2="75" y1="168.5625" y2="168.5625"/><polygon fill="#181818" points="44,164.5625,34,168.5625,44,172.5625,40,168.5625" style="stroke:#181818;stroke-width:1.0;"/><text fill="#000000" font-family="sans-serif" font-size="13" lengthAdjust="spacing" textLength="116" x="40" y="150.4966">Room.add(Player)</text><polygon fill="#181818" points="224,193.6953,234,197.6953,224,201.6953,228,197.6953" style="stroke:#181818;stroke-width:1.0;"/><line style="stroke:#181818;stroke-width:1.0;stroke-dasharray:2.0,2.0;" x1="33" x2="230" y1="197.6953" y2="197.6953"/><text fill="#000000" font-family="sans-serif" font-size="13" lengthAdjust="spacing" textLength="110" x="40" y="192.6294">Player.initialise();</text><polygon fill="#181818" points="463,222.8281,473,226.8281,463,230.8281,467,226.8281" style="stroke:#181818;stroke-width:1.0;"/><line style="stroke:#181818;stroke-width:1.0;" x1="236" x2="469" y1="226.8281" y2="226.8281"/><text fill="#000000" font-family="sans-serif" font-size="13" lengthAdjust="spacing" textLength="117" x="243" y="221.7622">Order("INITIALISE")</text><polygon fill="#181818" points="247,282.2266,237,286.2266,247,290.2266,243,286.2266" style="stroke:#181818;stroke-width:1.0;"/><line style="stroke:#181818;stroke-width:1.0;" x1="241" x2="474" y1="286.2266" y2="286.2266"/><text fill="#000000" font-family="sans-serif" font-size="13" lengthAdjust="spacing" textLength="132" x="253" y="250.895">Okay, here's my INIT</text><text fill="#000000" font-family="sans-serif" font-size="13" lengthAdjust="spacing" textLength="102" x="257" y="266.0278">object response</text><text fill="#000000" font-family="sans-serif" font-size="13" lengthAdjust="spacing" textLength="107" x="253" y="281.1606">(Contains name)</text><line style="stroke:#181818;stroke-width:1.0;" x1="236" x2="278" y1="315.3594" y2="315.3594"/><line style="stroke:#181818;stroke-width:1.0;" x1="278" x2="278" y1="315.3594" y2="328.3594"/><line style="stroke:#181818;stroke-width:1.0;" x1="237" x2="278" y1="328.3594" y2="328.3594"/><polygon fill="#181818" points="247,324.3594,237,328.3594,247,332.3594,243,328.3594" style="stroke:#181818;stroke-width:1.0;"/><text fill="#000000" font-family="sans-serif" font-size="13" lengthAdjust="spacing" textLength="81" x="243" y="310.2935">added name</text><polygon fill="#181818" points="44,353.4922,34,357.4922,44,361.4922,40,357.4922" style="stroke:#181818;stroke-width:1.0;"/><line style="stroke:#181818;stroke-width:1.0;" x1="38" x2="235" y1="357.4922" y2="357.4922"/><text fill="#000000" font-family="sans-serif" font-size="13" lengthAdjust="spacing" textLength="32" x="50" y="352.4263">done</text><rect fill="#EEEEEE" height="3" style="stroke:#EEEEEE;stroke-width:1.0;" width="504.5" x="0" y="386.0586"/><line style="stroke:#000000;stroke-width:1.0;" x1="0" x2="504.5" y1="386.0586" y2="386.0586"/><line style="stroke:#000000;stroke-width:1.0;" x1="0" x2="504.5" y1="389.0586" y2="389.0586"/><rect fill="#EEEEEE" height="23.1328" style="stroke:#000000;stroke-width:2.0;" width="101" x="201.75" y="375.4922"/><text fill="#000000" font-family="sans-serif" font-size="13" font-weight="bold" lengthAdjust="spacing" textLength="82" x="207.75" y="391.5591">Game Part</text><polygon fill="#181818" points="224,425.7578,234,429.7578,224,433.7578,228,429.7578" style="stroke:#181818;stroke-width:1.0;"/><line style="stroke:#181818;stroke-width:1.0;stroke-dasharray:2.0,2.0;" x1="33" x2="230" y1="429.7578" y2="429.7578"/><text fill="#000000" font-family="sans-serif" font-size="13" lengthAdjust="spacing" textLength="169" x="40" y="424.6919">LoadScene.GAME_SCREEN</text><polygon fill="#181818" points="463,454.8906,473,458.8906,463,462.8906,467,458.8906" style="stroke:#181818;stroke-width:1.0;"/><line style="stroke:#181818;stroke-width:1.0;" x1="236" x2="469" y1="458.8906" y2="458.8906"/><text fill="#000000" font-family="sans-serif" font-size="13" lengthAdjust="spacing" textLength="215" x="243" y="453.8247">Order(LoadScene.GAME_SCREEN)</text><polygon fill="#181818" points="247,484.0234,237,488.0234,247,492.0234,243,488.0234" style="stroke:#181818;stroke-width:1.0;"/><line style="stroke:#181818;stroke-width:1.0;stroke-dasharray:2.0,2.0;" x1="241" x2="474" y1="488.0234" y2="488.0234"/><text fill="#000000" font-family="sans-serif" font-size="13" lengthAdjust="spacing" textLength="147" x="253" y="482.9575">BufferedReader() input</text><polygon fill="#181818" points="44,513.1563,34,517.1563,44,521.1563,40,517.1563" style="stroke:#181818;stroke-width:1.0;"/><line style="stroke:#181818;stroke-width:1.0;" x1="38" x2="235" y1="517.1563" y2="517.1563"/><text fill="#000000" font-family="sans-serif" font-size="13" lengthAdjust="spacing" textLength="179" x="50" y="512.0903">sends New input from client</text><!--MD5=[6f93f68cb7ea4eae154aa1d504ff0c6d]
@startuml
== Initialisation ==
Room -> Room: Room.add(Player)
Room - -> Player: Player.initialise();
actor Client
Player -> Client: Order("INITIALISE")
Client -> Player: Okay, here's my INIT\n object response\n(Contains name)
Player -> Player: added name
Player -> Room: done
== Game Part ==
Room - -> Player: LoadScene.GAME_SCREEN
Player -> Client: Order(LoadScene.GAME_SCREEN)
Client - -> Player: BufferedReader() input
Player -> Room: sends New input from client
' Some useful sources:
' - https://stackoverflow.com/q/14639003
' - https://stackoverflow.com/q/49654735
@enduml

@startuml
== Initialisation ==
Room -> Room: Room.add(Player)
Room - -> Player: Player.initialise();
actor Client
Player -> Client: Order("INITIALISE")
Client -> Player: Okay, here's my INIT\n object response\n(Contains name)
Player -> Player: added name
Player -> Room: done
== Game Part ==
Room - -> Player: LoadScene.GAME_SCREEN
Player -> Client: Order(LoadScene.GAME_SCREEN)
Client - -> Player: BufferedReader() input
Player -> Room: sends New input from client
@enduml

PlantUML version 1.2022.4beta2(Unknown compile time)
(GPL source distribution)
Java Runtime: Java(TM) SE Runtime Environment
JVM: Java HotSpot(TM) 64-Bit Server VM
Default Encoding: UTF-8
Language: en
Country: US
--></g></svg>